KayPhoDuMaster-Regular.ufo
<glyph name="exclam" format="2">
  <advance width="500"/>
  <unicode hex="0021"/>
  <outline>
    <component base="period"/>
    <contour>
      <point x="230" y="310" type="line"/>
      <point x="270" y="310" type="line"/>
      <point x="350" y="1472" type="line"/>
      <point x="350" y="1532"/>
      <point x="325" y="1574"/>
      <point x="250" y="1574" type="curve" smooth="yes"/>
      <point x="175" y="1574"/>
      <point x="150" y="1532"/>
      <point x="150" y="1472" type="curve"/>
    </contour>
  </outline>
</glyph>
<glyph name="percent" format="2">
  <advance width="1180"/>
  <unicode hex="0025"/>
  <outline>
    <contour>
      <point x="289" y="0" type="line"/>
      <point x="1043" y="1382" type="line"/>
      <point x="876" y="1385" type="line"/>
      <point x="127" y="0" type="line"/>
    </contour>
    <contour>
      <point x="367" y="897" type="line"/>
      <point x="367" y="1048" type="line"/>
      <point x="200" y="1048" type="line"/>
      <point x="200" y="897" type="line"/>
    </contour>
    <contour>
      <point x="965" y="330" type="line"/>
      <point x="965" y="480" type="line"/>
      <point x="792" y="480" type="line"/>
      <point x="792" y="330" type="line"/>
    </contour>
  </outline>
</glyph>
<glyph name="parenleft" format="2">
  <advance width="615"/>
  <unicode hex="0028"/>
  <outline>
    <contour>
      <point x="559" y="-275" type="line"/>
      <point x="418" y="-160"/>
      <point x="304" y="35"/>
      <point x="248" y="231" type="curve" smooth="yes"/>
      <point x="219" y="329"/>
      <point x="205" y="417"/>
      <point x="205" y="496" type="curve"/>
      <point x="212" y="611"/>
      <point x="266" y="798"/>
      <point x="380" y="966" type="curve" smooth="yes"/>
      <point x="438" y="1051"/>
      <point x="507" y="1119"/>
      <point x="590" y="1172" type="curve"/>
      <point x="391" y="1172" type="line"/>
      <point x="235" y="1033"/>
      <point x="139" y="874"/>
      <point x="98" y="720" type="curve" smooth="yes"/>
      <point x="78" y="644"/>
      <point x="68" y="569"/>
      <point x="68" y="496" type="curve" smooth="yes"/>
      <point x="68" y="177"/>
      <point x="167" y="-80"/>
      <point x="365" y="-275" type="curve"/>
    </contour>
  </outline>
</glyph>
<glyph name="asterisk" format="2">
  <advance width="1180"/>
  <unicode hex="002A"/>
  <outline>
    <contour>
      <point x="189" y="79" type="line"/>
      <point x="1048" y="936" type="line"/>
      <point x="950" y="1038" type="line"/>
      <point x="90" y="179" type="line"/>
    </contour>
    <contour>
      <point x="991" y="90" type="line"/>
      <point x="1091" y="189" type="line"/>
      <point x="242" y="1038" type="line"/>
      <point x="142" y="938" type="line"/>
    </contour>
    <contour>
      <point x="498" y="1048" type="line"/>
      <point x="498" y="0" type="line"/>
      <point x="655" y="0" type="line"/>
      <point x="655" y="1048" type="line"/>
    </contour>
    <contour>
      <point x="1133" y="493" type="line"/>
      <point x="1133" y="645" type="line"/>
      <point x="37" y="645" type="line"/>
      <point x="37" y="493" type="line"/>
    </contour>
  </outline>
</glyph>
<glyph name="plus" format="2">
  <advance width="1180"/>
  <unicode hex="002B"/>
  <outline>
    <contour>
      <point x="645" y="0" type="line"/>
      <point x="645" y="1046" type="line"/>
      <point x="520" y="1048" type="line"/>
      <point x="520" y="0" type="line"/>
    </contour>
    <contour>
      <point x="1028" y="462" type="line"/>
      <point x="1028" y="564" type="line"/>
      <point x="127" y="567" type="line"/>
      <point x="127" y="462" type="line"/>
    </contour>
  </outline>
</glyph>
<glyph name="comma" format="2">
  <advance width="560"/>
  <unicode hex="002C"/>
  <outline>
    <contour>
      <point x="76" y="-197" type="line"/>
      <point x="312" y="20" type="line"/>
      <point x="226" y="93" type="line"/>
      <point x="51" y="-178" type="line"/>
    </contour>
    <contour>
      <point x="210" y="0" type="line"/>
      <point x="410" y="0" type="line"/>
      <point x="410" y="200" type="line"/>
      <point x="210" y="200" type="line"/>
    </contour>
  </outline>
</glyph>
<glyph name="period" format="2">
  <advance width="498"/>
  <unicode hex="002E"/>
  <outline>
    <contour>
      <point x="346" y="5" type="line"/>
      <point x="346" y="205" type="line"/>
      <point x="147" y="205" type="line"/>
      <point x="147" y="5" type="line"/>
    </contour>
  </outline>
</glyph>
<glyph name="slash" format="2">
  <advance width="1180"/>
  <unicode hex="002F"/>
  <outline>
    <contour>
      <point x="289" y="0" type="line"/>
      <point x="1043" y="1382" type="line"/>
      <point x="876" y="1385" type="line"/>
      <point x="127" y="0" type="line"/>
    </contour>
  </outline>
</glyph>
<glyph name="zero" format="2">
  <advance width="1200" height="2352"/>
  <unicode hex="0030"/>
  <outline>
    <contour>
      <point x="638" y="1574" type="curve" smooth="yes"/>
      <point x="618" y="1574" type="line" smooth="yes"/>
      <point x="338" y="1574"/>
      <point x="128" y="1293"/>
      <point x="128" y="831" type="curve" smooth="yes"/>
      <point x="128" y="731" type="line" smooth="yes"/>
      <point x="128" y="269"/>
      <point x="338" y="-12"/>
      <point x="618" y="-12" type="curve" smooth="yes"/>
      <point x="638" y="-12" type="line" smooth="yes"/>
      <point x="918" y="-12"/>
      <point x="1128" y="269"/>
      <point x="1128" y="731" type="curve" smooth="yes"/>
      <point x="1128" y="831" type="line" smooth="yes"/>
      <point x="1128" y="1293"/>
      <point x="918" y="1574"/>
    </contour>
    <contour>
      <point x="1000" y="821" type="curve" smooth="yes"/>
      <point x="1000" y="741" type="line" smooth="yes"/>
      <point x="1000" y="348"/>
      <point x="852" y="112"/>
      <point x="632" y="112" type="curve" smooth="yes"/>
      <point x="624" y="112" type="line" smooth="yes"/>
      <point x="404" y="112"/>
      <point x="256" y="348"/>
      <point x="256" y="741" type="curve" smooth="yes"/>
      <point x="256" y="821" type="line" smooth="yes"/>
      <point x="256" y="1214"/>
      <point x="404" y="1450"/>
      <point x="624" y="1450" type="curve" smooth="yes"/>
      <point x="632" y="1450" type="line" smooth="yes"/>
      <point x="852" y="1450"/>
      <point x="1000" y="1214"/>
    </contour>
  </outline>
</glyph>
<glyph name="one" format="2">
  <advance width="1200" height="2352"/>
  <unicode hex="0031"/>
  <outline>
    <contour>
      <point x="128" y="1133" type="line"/>
      <point x="541" y="1423" type="line"/>
      <point x="664" y="1423" type="line"/>
      <point x="664" y="1574" type="line"/>
      <point x="541" y="1574" type="line"/>
      <point x="128" y="1285" type="line"/>
    </contour>
    <contour>
      <point x="128" y="0" type="line"/>
      <point x="1072" y="0" type="line"/>
      <point x="1072" y="124" type="line"/>
      <point x="128" y="124" type="line"/>
    </contour>
    <contour>
      <point x="536" y="0" type="line"/>
      <point x="664" y="0" type="line"/>
      <point x="664" y="1472" type="line"/>
      <point x="536" y="1472" type="line"/>
    </contour>
  </outline>
</glyph>
<glyph name="two" format="2">
  <advance width="1200" height="2352"/>
  <unicode hex="0032"/>
  <outline>
    <contour>
      <point x="128" y="0" type="line"/>
      <point x="183" y="0" type="line"/>
      <point x="636" y="501" type="line" smooth="yes"/>
      <point x="928" y="824"/>
      <point x="1032" y="977"/>
      <point x="1032" y="1180" type="curve" smooth="yes"/>
      <point x="1032" y="1403"/>
      <point x="871" y="1574"/>
      <point x="600" y="1574" type="curve" smooth="yes"/>
      <point x="400" y="1574"/>
      <point x="243" y="1481"/>
      <point x="156" y="1347" type="curve"/>
      <point x="250" y="1265" type="line"/>
      <point x="321" y="1378"/>
      <point x="439" y="1450"/>
      <point x="600" y="1450" type="curve" smooth="yes"/>
      <point x="794" y="1450"/>
      <point x="904" y="1343"/>
      <point x="904" y="1180" type="curve" smooth="yes"/>
      <point x="904" y="1009"/>
      <point x="808" y="876"/>
      <point x="551" y="592" type="curve" smooth="yes"/>
      <point x="128" y="124" type="line"/>
    </contour>
    <contour>
      <point x="128" y="0" type="line"/>
      <point x="1072" y="0" type="line"/>
      <point x="1072" y="124" type="line"/>
      <point x="128" y="124" type="line"/>
    </contour>
  </outline>
</glyph>
<glyph name="seven" format="2">
  <advance width="1200" height="2352"/>
  <unicode hex="0037"/>
  <outline>
    <contour>
      <point x="1072" y="1562" type="line"/>
      <point x="991" y="1562" type="line"/>
      <point x="303" y="0" type="line"/>
      <point x="439" y="0" type="line"/>
      <point x="1072" y="1438" type="line"/>
    </contour>
    <contour>
      <point x="1072" y="1562" type="line"/>
      <point x="128" y="1562" type="line"/>
      <point x="128" y="1438" type="line"/>
      <point x="1072" y="1438" type="line"/>
    </contour>
  </outline>
</glyph>
<glyph name="colon" format="2">
  <advance width="498"/>
  <unicode hex="003A"/>
  <outline>
    <contour>
      <point x="340" y="742" type="line"/>
      <point x="340" y="942" type="line"/>
      <point x="142" y="942" type="line"/>
      <point x="142" y="742" type="line"/>
    </contour>
    <contour>
      <point x="340" y="102" type="line"/>
      <point x="340" y="302" type="line"/>
      <point x="142" y="302" type="line"/>
      <point x="142" y="102" type="line"/>
    </contour>
  </outline>
</glyph>
<glyph name="equal" format="2">
  <advance width="1180"/>
  <unicode hex="003D"/>
  <outline>
    <contour>
      <point x="1028" y="613" type="line"/>
      <point x="1028" y="716" type="line"/>
      <point x="127" y="718" type="line"/>
      <point x="127" y="613" type="line"/>
    </contour>
    <contour>
      <point x="1028" y="320" type="line"/>
      <point x="1028" y="422" type="line"/>
      <point x="127" y="425" type="line"/>
      <point x="127" y="320" type="line"/>
    </contour>
  </outline>
</glyph>
<glyph name="question" format="2">
  <advance width="922"/>
  <unicode hex="003F"/>
  <outline>
    <contour>
      <point x="492" y="443" type="line" smooth="yes"/>
      <point x="492" y="467"/>
      <point x="528" y="488"/>
      <point x="582" y="520" type="curve" smooth="yes"/>
      <point x="618" y="540"/>
      <point x="651" y="561"/>
      <point x="682" y="582" type="curve" smooth="yes"/>
      <point x="802" y="663"/>
      <point x="860" y="746"/>
      <point x="860" y="902" type="curve"/>
      <point x="851" y="1014"/>
      <point x="792" y="1120"/>
      <point x="679" y="1182" type="curve" smooth="yes"/>
      <point x="622" y="1214"/>
      <point x="553" y="1229"/>
      <point x="471" y="1229" type="curve"/>
      <point x="303" y="1217"/>
      <point x="203" y="1129"/>
      <point x="160" y="1040" type="curve" smooth="yes"/>
      <point x="139" y="995"/>
      <point x="126" y="956"/>
      <point x="123" y="922" type="curve" smooth="yes"/>
      <point x="122" y="914"/>
      <point x="121" y="904"/>
      <point x="120" y="893" type="curve" smooth="yes"/>
      <point x="118" y="882"/>
      <point x="117" y="872"/>
      <point x="117" y="863" type="curve" smooth="yes"/>
      <point x="117" y="824"/>
      <point x="115" y="793"/>
      <point x="176" y="793" type="curve" smooth="yes"/>
      <point x="207" y="793"/>
      <point x="223" y="802"/>
      <point x="223" y="820" type="curve" smooth="yes"/>
      <point x="224" y="834"/>
      <point x="225" y="851"/>
      <point x="225" y="871" type="curve" smooth="yes"/>
      <point x="225" y="891"/>
      <point x="225" y="904"/>
      <point x="226" y="910" type="curve" smooth="yes"/>
      <point x="234" y="983"/>
      <point x="282" y="1053"/>
      <point x="356" y="1094" type="curve" smooth="yes"/>
      <point x="392" y="1114"/>
      <point x="432" y="1124"/>
      <point x="475" y="1125" type="curve" smooth="yes"/>
      <point x="630" y="1125"/>
      <point x="723" y="1049"/>
      <point x="752" y="896" type="curve" smooth="yes"/>
      <point x="755" y="879"/>
      <point x="756" y="867"/>
      <point x="756" y="859" type="curve" smooth="yes"/>
      <point x="756" y="767"/>
      <point x="686" y="696"/>
      <point x="547" y="619" type="curve" smooth="yes"/>
      <point x="451" y="566"/>
      <point x="388" y="512"/>
      <point x="383" y="473" type="curve" smooth="yes"/>
      <point x="381" y="458"/>
      <point x="379" y="451"/>
      <point x="377" y="451" type="curve"/>
      <point x="377" y="241" type="line"/>
      <point x="492" y="241" type="line"/>
    </contour>
    <contour>
      <point x="373" y="127" type="line"/>
      <point x="373" y="4" type="line"/>
      <point x="496" y="4" type="line"/>
      <point x="496" y="127" type="line"/>
    </contour>
  </outline>
</glyph>
<glyph name="A" format="2">
  <advance width="1262"/>
  <unicode hex="0041"/>
  <outline>
    <component base="_latserifSW" xOffset="-24"/>
    <component base="_latserifSE" xOffset="138"/>
    <contour>
      <point x="107" y="0" type="line"/>
      <point x="236" y="0" type="line"/>
      <point x="630" y="1408" type="line"/>
      <point x="1025" y="0" type="line"/>
      <point x="1154" y="0" type="line"/>
      <point x="712" y="1574" type="line"/>
      <point x="548" y="1574" type="line"/>
    </contour>
    <contour>
      <point x="326" y="514" type="line"/>
      <point x="932" y="514" type="line"/>
      <point x="932" y="638" type="line"/>
      <point x="326" y="638" type="line"/>
    </contour>
  </outline>
</glyph>
<glyph name="C" format="2">
  <advance width="1174"/>
  <unicode hex="0043"/>
  <anchor x="615" y="-50" name="L"/>
  <outline>
    <contour>
      <point x="597" y="-12" type="curve" smooth="yes"/>
      <point x="618" y="-12" type="line"/>
      <point x="618" y="112" type="line"/>
      <point x="602" y="112" type="line" smooth="yes"/>
      <point x="339" y="112"/>
      <point x="252" y="327"/>
      <point x="252" y="712" type="curve" smooth="yes"/>
      <point x="252" y="734" type="line"/>
      <point x="124" y="734" type="line"/>
      <point x="124" y="702" type="line" smooth="yes"/>
      <point x="124" y="228"/>
      <point x="279" y="-12"/>
    </contour>
    <contour>
      <point x="614" y="-12" type="line"/>
      <point x="635" y="-12" type="line" smooth="yes"/>
      <point x="923" y="-12"/>
      <point x="1058" y="202"/>
      <point x="1058" y="376" type="curve" smooth="yes"/>
      <point x="1058" y="388" type="line"/>
      <point x="925" y="388" type="line"/>
      <point x="925" y="376" type="line" smooth="yes"/>
      <point x="925" y="281"/>
      <point x="862" y="112"/>
      <point x="629" y="112" type="curve" smooth="yes"/>
      <point x="614" y="112" type="line"/>
    </contour>
    <contour>
      <point x="124" y="724" type="line"/>
      <point x="252" y="724" type="line"/>
      <point x="252" y="745" type="line" smooth="yes"/>
      <point x="252" y="1130"/>
      <point x="339" y="1334"/>
      <point x="602" y="1334" type="curve" smooth="yes"/>
      <point x="618" y="1334" type="line"/>
      <point x="618" y="1458" type="line"/>
      <point x="597" y="1458" type="line" smooth="yes"/>
      <point x="279" y="1458"/>
      <point x="124" y="1229"/>
      <point x="124" y="756" type="curve" smooth="yes"/>
    </contour>
    <contour>
      <point x="925" y="1070" type="line"/>
      <point x="1058" y="1070" type="line"/>
      <point x="1058" y="1082" type="line" smooth="yes"/>
      <point x="1058" y="1265"/>
      <point x="923" y="1458"/>
      <point x="635" y="1458" type="curve" smooth="yes"/>
      <point x="614" y="1458" type="line"/>
      <point x="614" y="1334" type="line"/>
      <point x="629" y="1334" type="line" smooth="yes"/>
      <point x="862" y="1334"/>
      <point x="925" y="1176"/>
      <point x="925" y="1081" type="curve" smooth="yes"/>
    </contour>
  </outline>
</glyph>
<glyph name="D" format="2">
  <advance width="1160"/>
  <unicode hex="0044"/>
  <outline>
    <component base="_latserifSW"/>
    <component base="_latstemSW"/>
    <component base="_latstemNW"/>
    <component base="_latstemascW" yOffset="-128"/>
    <component base="_latserifNW" yOffset="408"/>
    <contour>
      <point x="414" y="0" type="line"/>
      <point x="495" y="0" type="line" smooth="yes"/>
      <point x="863" y="0"/>
      <point x="1068" y="236"/>
      <point x="1068" y="710" type="curve" smooth="yes"/>
      <point x="1068" y="742" type="line"/>
      <point x="940" y="742" type="line"/>
      <point x="940" y="720" type="line" smooth="yes"/>
      <point x="940" y="335"/>
      <point x="802" y="124"/>
      <point x="489" y="124" type="curve" smooth="yes"/>
      <point x="414" y="124" type="line"/>
    </contour>
    <contour>
      <point x="940" y="732" type="line"/>
      <point x="1068" y="732" type="line"/>
      <point x="1068" y="764" type="line" smooth="yes"/>
      <point x="1068" y="1237"/>
      <point x="863" y="1447"/>
      <point x="495" y="1447" type="curve" smooth="yes"/>
      <point x="414" y="1447" type="line"/>
      <point x="414" y="1323" type="line"/>
      <point x="489" y="1323" type="line" smooth="yes"/>
      <point x="802" y="1323"/>
      <point x="940" y="1138"/>
      <point x="940" y="753" type="curve" smooth="yes"/>
    </contour>
  </outline>
</glyph>
<glyph name="E" format="2">
  <advance width="1088"/>
  <unicode hex="0045"/>
  <outline>
    <component base="_latserifSW"/>
    <component base="_latstemSW"/>
    <component base="_latstemNW"/>
    <component base="_latstemascW" yOffset="-128"/>
    <component base="_latserifNW" yOffset="408"/>
    <contour>
      <point x="256" y="680" type="line"/>
      <point x="762" y="680" type="line"/>
      <point x="762" y="804" type="line"/>
      <point x="256" y="804" type="line"/>
    </contour>
    <contour>
      <point x="256" y="1322" type="line"/>
      <point x="932" y="1322" type="line"/>
      <point x="932" y="1446" type="line"/>
      <point x="256" y="1446" type="line"/>
    </contour>
    <contour>
      <point x="256" y="0" type="line"/>
      <point x="932" y="0" type="line"/>
      <point x="932" y="124" type="line"/>
      <point x="256" y="124" type="line"/>
    </contour>
    <contour>
      <point x="868" y="1158" type="line"/>
      <point x="996" y="1158" type="line"/>
      <point x="996" y="1446" type="line"/>
      <point x="868" y="1446" type="line"/>
    </contour>
    <contour>
      <point x="868" y="0" type="line"/>
      <point x="996" y="0" type="line"/>
      <point x="996" y="304" type="line"/>
      <point x="868" y="304" type="line"/>
    </contour>
    <contour>
      <point x="698" y="546" type="line"/>
      <point x="818" y="546" type="line"/>
      <point x="818" y="938" type="line"/>
      <point x="698" y="938" type="line"/>
    </contour>
  </outline>
</glyph>
<glyph name="F" format="2">
  <advance width="1104"/>
  <unicode hex="0046"/>
  <outline>
    <component base="_latserifSW" xOffset="16"/>
    <component base="_latstemSW" xOffset="16"/>
    <component base="_latstemNW" xOffset="16"/>
    <component base="_latstemascW" xOffset="16" yOffset="-128"/>
    <component base="_latserifNW" xOffset="16" yOffset="408"/>
    <contour>
      <point x="272" y="1322" type="line"/>
      <point x="948" y="1322" type="line"/>
      <point x="948" y="1446" type="line"/>
      <point x="272" y="1446" type="line"/>
    </contour>
    <contour>
      <point x="272" y="680" type="line"/>
      <point x="778" y="680" type="line"/>
      <point x="778" y="804" type="line"/>
      <point x="272" y="804" type="line"/>
    </contour>
    <contour>
      <point x="714" y="546" type="line"/>
      <point x="834" y="546" type="line"/>
      <point x="834" y="938" type="line"/>
      <point x="714" y="938" type="line"/>
    </contour>
    <contour>
      <point x="272" y="1574" type="line"/>
      <point x="948" y="1574" type="line"/>
    </contour>
    <contour>
      <point x="884" y="1158" type="line"/>
      <point x="1012" y="1158" type="line"/>
      <point x="1012" y="1446" type="line"/>
      <point x="884" y="1446" type="line"/>
    </contour>
    <contour>
      <point x="884" y="1574" type="line"/>
      <point x="1012" y="1574" type="line"/>
    </contour>
  </outline>
</glyph>
<glyph name="G" format="2">
  <advance width="1158"/>
  <unicode hex="0047"/>
  <outline>
    <contour>
      <point x="581" y="-12" type="curve" smooth="yes"/>
      <point x="602" y="-12" type="line"/>
      <point x="602" y="112" type="line"/>
      <point x="586" y="112" type="line" smooth="yes"/>
      <point x="323" y="112"/>
      <point x="236" y="327"/>
      <point x="236" y="712" type="curve" smooth="yes"/>
      <point x="236" y="734" type="line"/>
      <point x="108" y="734" type="line"/>
      <point x="108" y="702" type="line" smooth="yes"/>
      <point x="108" y="228"/>
      <point x="263" y="-12"/>
    </contour>
    <contour>
      <point x="598" y="-12" type="line"/>
      <point x="619" y="-12" type="line" smooth="yes"/>
      <point x="907" y="-12"/>
      <point x="1042" y="202"/>
      <point x="1042" y="416" type="curve" smooth="yes"/>
      <point x="1042" y="618" type="line"/>
      <point x="914" y="618" type="line"/>
      <point x="914" y="416" type="line" smooth="yes"/>
      <point x="914" y="281"/>
      <point x="846" y="112"/>
      <point x="613" y="112" type="curve" smooth="yes"/>
      <point x="598" y="112" type="line"/>
    </contour>
    <contour>
      <point x="600" y="556" type="line"/>
      <point x="1042" y="556" type="line"/>
      <point x="1042" y="680" type="line"/>
      <point x="600" y="680" type="line"/>
    </contour>
    <contour>
      <point x="108" y="724" type="line"/>
      <point x="236" y="724" type="line"/>
      <point x="236" y="745" type="line" smooth="yes"/>
      <point x="236" y="1130"/>
      <point x="323" y="1334"/>
      <point x="586" y="1334" type="curve" smooth="yes"/>
      <point x="602" y="1334" type="line"/>
      <point x="602" y="1458" type="line"/>
      <point x="581" y="1458" type="line" smooth="yes"/>
      <point x="263" y="1458"/>
      <point x="108" y="1229"/>
      <point x="108" y="756" type="curve" smooth="yes"/>
    </contour>
    <contour>
      <point x="909" y="1070" type="line"/>
      <point x="1042" y="1070" type="line"/>
      <point x="1042" y="1082" type="line" smooth="yes"/>
      <point x="1042" y="1265"/>
      <point x="907" y="1458"/>
      <point x="619" y="1458" type="curve" smooth="yes"/>
      <point x="598" y="1458" type="line"/>
      <point x="598" y="1334" type="line"/>
      <point x="613" y="1334" type="line" smooth="yes"/>
      <point x="846" y="1334"/>
      <point x="909" y="1176"/>
      <point x="909" y="1081" type="curve" smooth="yes"/>
    </contour>
  </outline>
</glyph>
<glyph name="H" format="2">
  <advance width="1278"/>
  <unicode hex="0048"/>
  <outline>
    <component base="_latserifSW"/>
    <component base="_latstemSW"/>
    <component base="_latstemNW"/>
    <component base="_latserifSE" xOffset="130"/>
    <component base="_latstemSE" xOffset="130"/>
    <component base="_latstemascW"/>
    <component base="_latserifNW" yOffset="536"/>
    <component base="_latstemNE" xOffset="130"/>
    <component base="_latstemascW" xOffset="766"/>
    <component base="_latserifNE" xOffset="130" yOffset="536"/>
    <contour>
      <point x="256" y="744" type="line"/>
      <point x="1022" y="744" type="line"/>
      <point x="1022" y="868" type="line"/>
      <point x="256" y="868" type="line"/>
    </contour>
  </outline>
</glyph>
<glyph name="I" format="2">
  <advance width="848"/>
  <unicode hex="0049"/>
  <outline>
    <component base="_latstemSW" xOffset="168"/>
    <component base="_latstemNW" xOffset="168"/>
    <component base="_latstemascW" xOffset="168" yOffset="-128"/>
    <contour>
      <point x="116" y="0" type="line"/>
      <point x="732" y="0" type="line"/>
      <point x="732" y="124" type="line"/>
      <point x="116" y="124" type="line"/>
    </contour>
    <contour>
      <point x="116" y="1322" type="line"/>
      <point x="732" y="1322" type="line"/>
      <point x="732" y="1446" type="line"/>
      <point x="116" y="1446" type="line"/>
    </contour>
  </outline>
</glyph>
<glyph name="J" format="2">
  <advance width="863"/>
  <unicode hex="004A"/>
  <outline>
    <component base="_latstemNW" xOffset="407"/>
    <component base="_latstemascW" xOffset="407" yOffset="-128"/>
    <contour>
      <point x="108" y="0" type="line"/>
      <point x="314" y="0" type="line" smooth="yes"/>
      <point x="597" y="0"/>
      <point x="727" y="217"/>
      <point x="727" y="471" type="curve" smooth="yes"/>
      <point x="727" y="603" type="line"/>
      <point x="599" y="603" type="line"/>
      <point x="599" y="481" type="line" smooth="yes"/>
      <point x="599" y="286"/>
      <point x="525" y="124"/>
      <point x="294" y="124" type="curve" smooth="yes"/>
      <point x="108" y="124" type="line"/>
    </contour>
    <contour>
      <point x="155" y="1322" type="line"/>
      <point x="663" y="1322" type="line"/>
      <point x="663" y="1446" type="line"/>
      <point x="155" y="1446" type="line"/>
    </contour>
  </outline>
</glyph>
<glyph name="K" format="2">
  <advance width="1183"/>
  <unicode hex="004B"/>
  <outline>
    <component base="_latserifSW" xOffset="16"/>
    <component base="_latstemSW" xOffset="16"/>
    <component base="_latstemNW" xOffset="16"/>
    <component base="_latstemascW" xOffset="16" yOffset="-128"/>
    <component base="_latserifNW" xOffset="16" yOffset="408"/>
    <component base="_latserifNE" xOffset="19" yOffset="408"/>
    <contour>
      <point x="933" y="0" type="line"/>
      <point x="1006" y="0" type="line"/>
      <point x="1006" y="124" type="line"/>
      <point x="605" y="784" type="line"/>
      <point x="491" y="784" type="line"/>
      <point x="491" y="733" type="line"/>
    </contour>
    <contour>
      <point x="305" y="680" type="line"/>
      <point x="569" y="680" type="line"/>
      <point x="569" y="804" type="line"/>
      <point x="305" y="804" type="line"/>
    </contour>
    <contour>
      <point x="981" y="0" type="line"/>
      <point x="1151" y="0" type="line"/>
      <point x="1151" y="124" type="line"/>
      <point x="981" y="124" type="line"/>
    </contour>
    <contour>
      <point x="477" y="741" type="line"/>
      <point x="587" y="741" type="line"/>
      <point x="1020" y="1374" type="line"/>
      <point x="1020" y="1446" type="line"/>
      <point x="923" y="1446" type="line"/>
      <point x="477" y="794" type="line"/>
    </contour>
  </outline>
</glyph>
<glyph name="L" format="2">
  <advance width="1104"/>
  <unicode hex="004C"/>
  <outline>
    <component base="_latserifSW" xOffset="16"/>
    <component base="_latstemSW" xOffset="16"/>
    <component base="_latstemNW" xOffset="16"/>
    <component base="_latstemascW" xOffset="16" yOffset="-128"/>
    <component base="_latserifNW" xOffset="16" yOffset="408"/>
    <contour>
      <point x="288" y="0" type="line"/>
      <point x="964" y="0" type="line"/>
      <point x="964" y="124" type="line"/>
      <point x="288" y="124" type="line"/>
    </contour>
    <contour>
      <point x="900" y="0" type="line"/>
      <point x="1028" y="0" type="line"/>
      <point x="1028" y="304" type="line"/>
      <point x="900" y="304" type="line"/>
    </contour>
  </outline>
</glyph>
<glyph name="M" format="2">
  <advance width="1550"/>
  <unicode hex="004D"/>
  <outline>
    <component base="_latserifSW" xOffset="16"/>
    <component base="_latstemSW" xOffset="16"/>
    <component base="_latstemNW" xOffset="16"/>
    <component base="_latserifSE" xOffset="386"/>
    <component base="_latstemSE" xOffset="386"/>
    <component base="_latstemascW" xOffset="16" yOffset="-128"/>
    <component base="_lathalfserifascW" xOffset="16" yOffset="-128"/>
    <component base="_latstemNE" xOffset="386"/>
    <component base="_latstemascW" xOffset="1022" yOffset="-128"/>
    <component base="_lathalfserifascW" xOffset="1230" yOffset="-128"/>
    <contour>
      <point x="704" y="320" type="line"/>
      <point x="846" y="320" type="line"/>
      <point x="1272" y="1446" type="line"/>
      <point x="1142" y="1446" type="line"/>
      <point x="775" y="479" type="line"/>
      <point x="408" y="1446" type="line"/>
      <point x="278" y="1446" type="line"/>
    </contour>
  </outline>
</glyph>
<glyph name="N" format="2">
  <advance width="1310"/>
  <unicode hex="004E"/>
  <outline>
    <component base="_latserifSW"/>
    <component base="_latstemSW"/>
    <component base="_latstemNW"/>
    <component base="_latstemSE" xOffset="162"/>
    <component base="_latstemascW"/>
    <component base="_lathalfserifascW"/>
    <component base="_latstemNE" xOffset="162"/>
    <component base="_latstemascW" xOffset="798"/>
    <component base="_latserifNE" xOffset="162" yOffset="536"/>
    <contour>
      <point x="980" y="0" type="line"/>
      <point x="1044" y="0" type="line"/>
      <point x="1044" y="150" type="line"/>
      <point x="330" y="1574" type="line"/>
      <point x="266" y="1574" type="line"/>
      <point x="266" y="1424" type="line"/>
    </contour>
  </outline>
</glyph>
<glyph name="O" format="2">
  <advance width="1168"/>
  <unicode hex="004F"/>
  <outline>
    <contour>
      <point x="948" y="724" type="line"/>
      <point x="1076" y="724" type="line"/>
      <point x="1076" y="756" type="line" smooth="yes"/>
      <point x="1076" y="1229"/>
      <point x="921" y="1458"/>
      <point x="603" y="1458" type="curve" smooth="yes"/>
      <point x="582" y="1458" type="line"/>
      <point x="582" y="1334" type="line"/>
      <point x="597" y="1334" type="line" smooth="yes"/>
      <point x="860" y="1334"/>
      <point x="948" y="1130"/>
      <point x="948" y="745" type="curve" smooth="yes"/>
    </contour>
    <contour>
      <point x="92" y="724" type="line"/>
      <point x="220" y="724" type="line"/>
      <point x="220" y="745" type="line" smooth="yes"/>
      <point x="220" y="1130"/>
      <point x="307" y="1334"/>
      <point x="570" y="1334" type="curve" smooth="yes"/>
      <point x="586" y="1334" type="line"/>
      <point x="586" y="1458" type="line"/>
      <point x="565" y="1458" type="line" smooth="yes"/>
      <point x="247" y="1458"/>
      <point x="92" y="1229"/>
      <point x="92" y="756" type="curve" smooth="yes"/>
    </contour>
    <contour>
      <point x="582" y="-12" type="line"/>
      <point x="603" y="-12" type="line" smooth="yes"/>
      <point x="921" y="-12"/>
      <point x="1076" y="228"/>
      <point x="1076" y="702" type="curve" smooth="yes"/>
      <point x="1076" y="734" type="line"/>
      <point x="948" y="734" type="line"/>
      <point x="948" y="712" type="line" smooth="yes"/>
      <point x="948" y="327"/>
      <point x="860" y="112"/>
      <point x="597" y="112" type="curve" smooth="yes"/>
      <point x="582" y="112" type="line"/>
    </contour>
    <contour>
      <point x="565" y="-12" type="curve" smooth="yes"/>
      <point x="586" y="-12" type="line"/>
      <point x="586" y="112" type="line"/>
      <point x="570" y="112" type="line" smooth="yes"/>
      <point x="307" y="112"/>
      <point x="220" y="327"/>
      <point x="220" y="712" type="curve" smooth="yes"/>
      <point x="220" y="734" type="line"/>
      <point x="92" y="734" type="line"/>
      <point x="92" y="702" type="line" smooth="yes"/>
      <point x="92" y="228"/>
      <point x="247" y="-12"/>
    </contour>
  </outline>
</glyph>
<glyph name="P" format="2">
  <advance width="1080"/>
  <unicode hex="0050"/>
  <outline>
    <component base="_latserifSW"/>
    <component base="_latstemSW"/>
    <component base="_latstemNW"/>
    <component base="_latstemascW"/>
    <component base="_lathalfserifascW"/>
    <contour>
      <point x="256" y="640" type="line"/>
      <point x="465" y="640" type="line" smooth="yes"/>
      <point x="808" y="640"/>
      <point x="988" y="803"/>
      <point x="988" y="1086" type="curve" smooth="yes"/>
      <point x="988" y="1118" type="line"/>
      <point x="860" y="1118" type="line"/>
      <point x="860" y="1096" type="line" smooth="yes"/>
      <point x="860" y="861"/>
      <point x="722" y="764"/>
      <point x="459" y="764" type="curve" smooth="yes"/>
      <point x="256" y="764" type="line"/>
    </contour>
    <contour>
      <point x="860" y="1108" type="line"/>
      <point x="988" y="1108" type="line"/>
      <point x="988" y="1140" type="line" smooth="yes"/>
      <point x="988" y="1423"/>
      <point x="808" y="1574"/>
      <point x="465" y="1574" type="curve" smooth="yes"/>
      <point x="256" y="1574" type="line"/>
      <point x="256" y="1450" type="line"/>
      <point x="459" y="1450" type="line" smooth="yes"/>
      <point x="722" y="1450"/>
      <point x="860" y="1364"/>
      <point x="860" y="1129" type="curve" smooth="yes"/>
    </contour>
  </outline>
</glyph>
<glyph name="Q" format="2">
  <advance width="1232"/>
  <unicode hex="0051"/>
  <outline>
    <component base="O"/>
    <contour>
      <point x="1108" y="-176" type="line"/>
      <point x="1108" y="0" type="line"/>
      <point x="616" y="478" type="line"/>
      <point x="616" y="305" type="line"/>
    </contour>
  </outline>
</glyph>
<glyph name="R" format="2">
  <advance width="1128"/>
  <unicode hex="0052"/>
  <outline>
    <component base="_latserifSW"/>
    <component base="_latstemSW"/>
    <component base="_latstemNW"/>
    <component base="_latstemascW"/>
    <component base="_lathalfserifascW"/>
    <contour>
      <point x="888" y="0" type="line"/>
      <point x="964" y="0" type="line"/>
      <point x="964" y="124" type="line"/>
      <point x="629" y="769" type="line"/>
      <point x="518" y="769" type="line"/>
      <point x="518" y="714" type="line"/>
    </contour>
    <contour>
      <point x="940" y="0" type="line"/>
      <point x="1112" y="0" type="line"/>
      <point x="1112" y="124" type="line"/>
      <point x="940" y="124" type="line"/>
    </contour>
    <contour>
      <point x="256" y="680" type="line"/>
      <point x="465" y="680" type="line" smooth="yes"/>
      <point x="788" y="680"/>
      <point x="978" y="833"/>
      <point x="978" y="1106" type="curve" smooth="yes"/>
      <point x="978" y="1138" type="line"/>
      <point x="850" y="1138" type="line"/>
      <point x="850" y="1116" type="line" smooth="yes"/>
      <point x="850" y="872"/>
      <point x="691" y="804"/>
      <point x="459" y="804" type="curve" smooth="yes"/>
      <point x="256" y="804" type="line"/>
    </contour>
    <contour>
      <point x="850" y="1128" type="line"/>
      <point x="978" y="1128" type="line"/>
      <point x="978" y="1160" type="line" smooth="yes"/>
      <point x="978" y="1433"/>
      <point x="788" y="1574"/>
      <point x="465" y="1574" type="curve" smooth="yes"/>
      <point x="256" y="1574" type="line"/>
      <point x="256" y="1450" type="line"/>
      <point x="459" y="1450" type="line" smooth="yes"/>
      <point x="702" y="1450"/>
      <point x="850" y="1374"/>
      <point x="850" y="1149" type="curve" smooth="yes"/>
    </contour>
  </outline>
</glyph>
<glyph name="S" format="2">
  <advance width="1100"/>
  <unicode hex="0053"/>
  <outline>
    <contour>
      <point x="547" y="-12" type="curve"/>
      <point x="857" y="-12"/>
      <point x="992" y="210"/>
      <point x="992" y="414" type="curve"/>
      <point x="992" y="636"/>
      <point x="846" y="784"/>
      <point x="569" y="813" type="curve" smooth="yes"/>
      <point x="304" y="841"/>
      <point x="266" y="959"/>
      <point x="266" y="1069" type="curve" smooth="yes"/>
      <point x="266" y="1182"/>
      <point x="309" y="1334"/>
      <point x="548" y="1334" type="curve"/>
      <point x="796" y="1334"/>
      <point x="829" y="1176"/>
      <point x="829" y="1081" type="curve" smooth="yes"/>
      <point x="829" y="1070" type="line"/>
      <point x="962" y="1070" type="line"/>
      <point x="962" y="1082" type="line" smooth="yes"/>
      <point x="962" y="1265"/>
      <point x="857" y="1458"/>
      <point x="549" y="1458" type="curve" smooth="yes"/>
      <point x="243" y="1458"/>
      <point x="138" y="1251"/>
      <point x="138" y="1070" type="curve"/>
      <point x="138" y="875"/>
      <point x="244" y="721"/>
      <point x="543" y="689" type="curve" smooth="yes"/>
      <point x="775" y="664"/>
      <point x="864" y="557"/>
      <point x="864" y="413" type="curve" smooth="yes"/>
      <point x="864" y="289"/>
      <point x="796" y="112"/>
      <point x="550" y="112" type="curve"/>
      <point x="304" y="112"/>
      <point x="241" y="281"/>
      <point x="241" y="376" type="curve" smooth="yes"/>
      <point x="241" y="388" type="line"/>
      <point x="108" y="388" type="line"/>
      <point x="108" y="376" type="line" smooth="yes"/>
      <point x="108" y="192"/>
      <point x="243" y="-12"/>
    </contour>
  </outline>
</glyph>
<glyph name="T" format="2">
  <advance width="1240"/>
  <unicode hex="0054"/>
  <outline>
    <component base="_latserifSW" xOffset="364"/>
    <component base="_latstemSW" xOffset="364"/>
    <component base="_latstemNW" xOffset="364"/>
    <component base="_latstemascW" xOffset="364" yOffset="-128"/>
    <component base="_latserifNW" xOffset="364" yOffset="408"/>
    <contour>
      <point x="140" y="1322" type="line"/>
      <point x="1100" y="1322" type="line"/>
      <point x="1100" y="1446" type="line"/>
      <point x="140" y="1446" type="line"/>
    </contour>
    <contour>
      <point x="1036" y="1110" type="line"/>
      <point x="1164" y="1110" type="line"/>
      <point x="1164" y="1446" type="line"/>
      <point x="1036" y="1446" type="line"/>
    </contour>
    <contour>
      <point x="76" y="1110" type="line"/>
      <point x="204" y="1110" type="line"/>
      <point x="204" y="1446" type="line"/>
      <point x="76" y="1446" type="line"/>
    </contour>
  </outline>
</glyph>
<glyph name="U" format="2">
  <advance width="1278"/>
  <unicode hex="0055"/>
  <outline>
    <component base="_latstemascW" yOffset="-122"/>
    <component base="_latserifNW" yOffset="414"/>
    <component base="_latstemascW" xOffset="766" yOffset="-122"/>
    <component base="_latserifNE" xOffset="130" yOffset="414"/>
    <contour>
      <point x="621" y="-12" type="curve" smooth="yes"/>
      <point x="642" y="-12" type="line"/>
      <point x="642" y="112" type="line"/>
      <point x="626" y="112" type="line" smooth="yes"/>
      <point x="373" y="112"/>
      <point x="320" y="311"/>
      <point x="320" y="536" type="curve" smooth="yes"/>
      <point x="320" y="1038" type="line"/>
      <point x="192" y="1038" type="line"/>
      <point x="192" y="526" type="line" smooth="yes"/>
      <point x="192" y="202"/>
      <point x="313" y="-12"/>
    </contour>
    <contour>
      <point x="638" y="-12" type="line"/>
      <point x="659" y="-12" type="line" smooth="yes"/>
      <point x="967" y="-12"/>
      <point x="1086" y="202"/>
      <point x="1086" y="526" type="curve" smooth="yes"/>
      <point x="1086" y="1038" type="line"/>
      <point x="958" y="1038" type="line"/>
      <point x="958" y="536" type="line" smooth="yes"/>
      <point x="958" y="311"/>
      <point x="906" y="112"/>
      <point x="653" y="112" type="curve" smooth="yes"/>
      <point x="638" y="112" type="line"/>
    </contour>
  </outline>
</glyph>
<glyph name="V" format="2">
  <advance width="1294"/>
  <unicode hex="0056"/>
  <outline>
    <component base="_latserifNW" xOffset="-24" yOffset="408"/>
    <component base="_latserifNE" xOffset="138" yOffset="408"/>
    <contour>
      <point x="565" y="0" type="line"/>
      <point x="729" y="0" type="line"/>
      <point x="1160" y="1446" type="line"/>
      <point x="1031" y="1446" type="line"/>
      <point x="647" y="159" type="line"/>
      <point x="262" y="1446" type="line"/>
      <point x="133" y="1446" type="line"/>
    </contour>
  </outline>
</glyph>
<glyph name="W" format="2">
  <advance width="1692"/>
  <unicode hex="0057"/>
  <outline>
    <component base="_latserifNW" xOffset="-34" yOffset="536"/>
    <component base="_latserifNE" xOffset="-42" yOffset="536"/>
    <component base="_latserifNE" xOffset="578" yOffset="536"/>
    <contour>
      <point x="407" y="0" type="line"/>
      <point x="586" y="0" type="line"/>
      <point x="937" y="1574" type="line"/>
      <point x="810" y="1574" type="line"/>
      <point x="499" y="179" type="line"/>
      <point x="236" y="1574" type="line"/>
      <point x="109" y="1574" type="line"/>
    </contour>
    <contour>
      <point x="1106" y="0" type="line"/>
      <point x="1285" y="0" type="line"/>
      <point x="1582" y="1574" type="line"/>
      <point x="1455" y="1574" type="line"/>
      <point x="1193" y="179" type="line"/>
      <point x="884" y="1574" type="line"/>
      <point x="757" y="1574" type="line"/>
    </contour>
  </outline>
</glyph>
<glyph name="X" format="2">
  <advance width="1320"/>
  <unicode hex="0058"/>
  <outline>
    <component base="_latserifSW"/>
    <component base="_latserifSE" xOffset="140"/>
    <component base="_latserifNW" xOffset="30" yOffset="408"/>
    <component base="_latserifNE" xOffset="110" yOffset="408"/>
    <contour>
      <point x="1053" y="0" type="line"/>
      <point x="1196" y="0" type="line"/>
      <point x="298" y="1446" type="line"/>
      <point x="155" y="1446" type="line"/>
    </contour>
    <contour>
      <point x="124" y="0" type="line"/>
      <point x="266" y="0" type="line"/>
      <point x="671" y="662" type="line"/>
      <point x="599" y="788" type="line"/>
    </contour>
    <contour>
      <point x="719" y="713" type="line"/>
      <point x="1163" y="1446" type="line"/>
      <point x="1021" y="1446" type="line"/>
      <point x="647" y="839" type="line"/>
    </contour>
  </outline>
</glyph>
<glyph name="Y" format="2">
  <advance width="1242"/>
  <unicode hex="0059"/>
  <outline>
    <component base="_latserifSW" xOffset="365"/>
    <component base="_latstemSW" xOffset="365"/>
    <component base="_latserifNW" xOffset="-34" yOffset="408"/>
    <component base="_latserifNE" xOffset="128" yOffset="408"/>
    <contour>
      <point x="565" y="532" type="line"/>
      <point x="677" y="532" type="line"/>
      <point x="1143" y="1446" type="line"/>
      <point x="1005" y="1446" type="line"/>
      <point x="621" y="703" type="line"/>
      <point x="236" y="1446" type="line"/>
      <point x="98" y="1446" type="line"/>
    </contour>
    <contour>
      <point x="557" y="464" type="line"/>
      <point x="685" y="464" type="line"/>
      <point x="685" y="640" type="line"/>
      <point x="557" y="640" type="line"/>
    </contour>
  </outline>
</glyph>
<glyph name="Z" format="2">
  <advance width="1119"/>
  <unicode hex="005A"/>
  <outline>
    <contour>
      <point x="108" y="0" type="line"/>
      <point x="177" y="0" type="line"/>
      <point x="1001" y="1322" type="line"/>
      <point x="1001" y="1446" type="line"/>
      <point x="932" y="1446" type="line"/>
      <point x="108" y="124" type="line"/>
    </contour>
    <contour>
      <point x="139" y="0" type="line"/>
      <point x="1011" y="0" type="line"/>
      <point x="1011" y="124" type="line"/>
      <point x="139" y="124" type="line"/>
    </contour>
    <contour>
      <point x="883" y="62" type="line"/>
      <point x="1011" y="62" type="line"/>
      <point x="1011" y="392" type="line"/>
      <point x="883" y="392" type="line"/>
    </contour>
    <contour>
      <point x="128" y="1054" type="line"/>
      <point x="256" y="1054" type="line"/>
      <point x="256" y="1384" type="line"/>
      <point x="128" y="1384" type="line"/>
    </contour>
    <contour>
      <point x="128" y="1322" type="line"/>
      <point x="961" y="1322" type="line"/>
      <point x="961" y="1446" type="line"/>
      <point x="128" y="1446" type="line"/>
    </contour>
  </outline>
</glyph>
<glyph name="backslash" format="2">
  <advance width="1016"/>
  <unicode hex="005C"/>
  <outline>
    <contour>
      <point x="811" y="0" type="line"/>
      <point x="952" y="0" type="line"/>
      <point x="203" y="1385" type="line"/>
      <point x="64" y="1382" type="line"/>
    </contour>
  </outline>
</glyph>
<glyph name="underscore" format="2">
  <advance width="1180"/>
  <unicode hex="005F"/>
  <outline>
    <contour>
      <point x="0" y="-278" type="line"/>
      <point x="1180" y="-278" type="line"/>
      <point x="1180" y="-154" type="line"/>
      <point x="0" y="-154" type="line"/>
    </contour>
  </outline>
</glyph>
<glyph name="a" format="2">
  <advance width="1028"/>
  <unicode hex="0061"/>
  <outline>
    <component base="_lathalfserifSE" xOffset="-100"/>
    <component base="_latstemSE" xOffset="-100"/>
    <contour>
      <point x="708" y="512" type="line"/>
      <point x="836" y="512" type="line"/>
      <point x="836" y="644" type="line" smooth="yes"/>
      <point x="836" y="897"/>
      <point x="749" y="1050"/>
      <point x="514" y="1050" type="curve" smooth="yes"/>
      <point x="500" y="1050"/>
      <point x="481" y="1050"/>
      <point x="462" y="1050" type="curve"/>
      <point x="462" y="1024"/>
      <point x="462" y="952"/>
      <point x="462" y="926" type="curve"/>
      <point x="489" y="926"/>
      <point x="498" y="926"/>
      <point x="514" y="926" type="curve" smooth="yes"/>
      <point x="659" y="926"/>
      <point x="708" y="847"/>
      <point x="708" y="632" type="curve" smooth="yes"/>
    </contour>
    <contour>
      <point x="405" y="0" type="curve" smooth="yes"/>
      <point x="432" y="0" type="line"/>
      <point x="432" y="124" type="line"/>
      <point x="416" y="124" type="line" smooth="yes"/>
      <point x="244" y="124"/>
      <point x="220" y="235"/>
      <point x="220" y="288" type="curve"/>
      <point x="220" y="295" type="line"/>
      <point x="92" y="295" type="line"/>
      <point x="92" y="288" type="line"/>
      <point x="92" y="172"/>
      <point x="172" y="0"/>
    </contour>
    <contour>
      <point x="92" y="292" type="line"/>
      <point x="220" y="292" type="line"/>
      <point x="220" y="299" type="line"/>
      <point x="220" y="352"/>
      <point x="264" y="463"/>
      <point x="456" y="463" type="curve" smooth="yes"/>
      <point x="472" y="463" type="line"/>
      <point x="472" y="587" type="line"/>
      <point x="445" y="587" type="line" smooth="yes"/>
      <point x="192" y="587"/>
      <point x="92" y="415"/>
      <point x="92" y="299" type="curve"/>
    </contour>
    <contour>
      <point x="459" y="463" type="line"/>
      <point x="803" y="463" type="line"/>
      <point x="803" y="587" type="line"/>
      <point x="459" y="587" type="line"/>
    </contour>
    <contour>
      <point x="92" y="755" type="line"/>
      <point x="220" y="755" type="line"/>
      <point x="220" y="762" type="line"/>
      <point x="220" y="815"/>
      <point x="264" y="926"/>
      <point x="456" y="926" type="curve" smooth="yes"/>
      <point x="472" y="926" type="line"/>
      <point x="472" y="1050" type="line"/>
      <point x="445" y="1050" type="line" smooth="yes"/>
      <point x="192" y="1050"/>
      <point x="92" y="878"/>
      <point x="92" y="762" type="curve"/>
    </contour>
    <contour>
      <point x="421" y="124" type="curve"/>
      <point x="421" y="0" type="line"/>
      <point x="425" y="0"/>
      <point x="430" y="0"/>
      <point x="434" y="0" type="curve" smooth="yes"/>
      <point x="605" y="0"/>
      <point x="744" y="159"/>
      <point x="790" y="289" type="curve"/>
      <point x="708" y="288" type="line"/>
      <point x="671" y="230"/>
      <point x="557" y="124"/>
      <point x="434" y="124" type="curve" smooth="yes"/>
      <point x="430" y="124"/>
      <point x="425" y="124"/>
    </contour>
  </outline>
</glyph>
<glyph name="c" format="2">
  <advance width="1040"/>
  <unicode hex="0063"/>
  <outline>
    <contour>
      <point x="128" y="512" type="line"/>
      <point x="256" y="512" type="line"/>
      <point x="256" y="553" type="line" smooth="yes"/>
      <point x="256" y="768"/>
      <point x="290" y="926"/>
      <point x="491" y="926" type="curve" smooth="yes"/>
      <point x="527" y="926" type="line"/>
      <point x="527" y="1050" type="line"/>
      <point x="471" y="1050" type="line" smooth="yes"/>
      <point x="208" y="1050"/>
      <point x="128" y="837"/>
      <point x="128" y="564" type="curve" smooth="yes"/>
    </contour>
    <contour>
      <point x="513" y="0" type="line"/>
      <point x="569" y="0" type="line" smooth="yes"/>
      <point x="822" y="0"/>
      <point x="912" y="171"/>
      <point x="912" y="287" type="curve"/>
      <point x="784" y="287" type="line"/>
      <point x="784" y="234"/>
      <point x="740" y="124"/>
      <point x="548" y="124" type="curve" smooth="yes"/>
      <point x="513" y="124" type="line"/>
    </contour>
    <contour>
      <point x="471" y="0" type="curve" smooth="yes"/>
      <point x="527" y="0" type="line"/>
      <point x="527" y="124" type="line"/>
      <point x="491" y="124" type="line" smooth="yes"/>
      <point x="290" y="124"/>
      <point x="256" y="281"/>
      <point x="256" y="496" type="curve" smooth="yes"/>
      <point x="256" y="538" type="line"/>
      <point x="128" y="538" type="line"/>
      <point x="128" y="486" type="line" smooth="yes"/>
      <point x="128" y="212"/>
      <point x="208" y="0"/>
    </contour>
    <contour>
      <point x="513" y="1050" type="line"/>
      <point x="513" y="926" type="line"/>
      <point x="548" y="926" type="line" smooth="yes"/>
      <point x="740" y="926"/>
      <point x="784" y="815"/>
      <point x="784" y="762" type="curve"/>
      <point x="912" y="762" type="line"/>
      <point x="912" y="878"/>
      <point x="822" y="1050"/>
      <point x="569" y="1050" type="curve" smooth="yes"/>
    </contour>
  </outline>
</glyph>
<glyph name="e" format="2">
  <advance width="964"/>
  <unicode hex="0065"/>
  <outline>
    <component base="_latcirNW"/>
    <component base="_latcirSW"/>
    <component base="_latcurveSE"/>
    <contour>
      <point x="744" y="522" type="line"/>
      <point x="872" y="522" type="line"/>
      <point x="872" y="604" type="line" smooth="yes"/>
      <point x="872" y="927"/>
      <point x="757" y="1050"/>
      <point x="508" y="1050" type="curve" smooth="yes"/>
      <point x="492" y="1050" type="line"/>
      <point x="492" y="926" type="line"/>
      <point x="507" y="926" type="line" smooth="yes"/>
      <point x="691" y="926"/>
      <point x="744" y="823"/>
      <point x="744" y="593" type="curve" smooth="yes"/>
    </contour>
    <contour>
      <point x="156" y="493" type="line"/>
      <point x="872" y="493" type="line"/>
      <point x="872" y="555" type="line"/>
      <point x="807" y="617" type="line"/>
      <point x="156" y="617" type="line"/>
    </contour>
  </outline>
</glyph>
<glyph name="f" format="2">
  <advance width="663"/>
  <unicode hex="0066"/>
  <outline>
    <component base="_latlongserifSW"/>
    <component base="_latstemSW"/>
    <component base="_latstemNW"/>
    <component base="_latcrossbar" xOffset="-40"/>
    <contour>
      <point x="192" y="973" type="line"/>
      <point x="320" y="973" type="line"/>
      <point x="320" y="1295" type="line" smooth="yes"/>
      <point x="320" y="1400"/>
      <point x="364" y="1438"/>
      <point x="445" y="1438" type="curve" smooth="yes"/>
      <point x="611" y="1438" type="line"/>
      <point x="611" y="1562" type="line"/>
      <point x="425" y="1562" type="line" smooth="yes"/>
      <point x="282" y="1562"/>
      <point x="192" y="1469"/>
      <point x="192" y="1306" type="curve" smooth="yes"/>
    </contour>
  </outline>
</glyph>
<glyph name="g" format="2">
  <advance width="988"/>
  <unicode hex="0067"/>
  <outline>
    <component base="_latroundbowlW"/>
    <component base="_latstemSE" xOffset="-100"/>
    <component base="_latroundarchW"/>
    <component base="_latstemNE" xOffset="-100"/>
    <contour>
      <point x="477" y="-524" type="line"/>
      <point x="509" y="-524" type="line" smooth="yes"/>
      <point x="772" y="-524"/>
      <point x="872" y="-311"/>
      <point x="872" y="-38" type="curve" smooth="yes"/>
      <point x="872" y="14" type="line"/>
      <point x="744" y="14" type="line"/>
      <point x="744" y="-27" type="line" smooth="yes"/>
      <point x="744" y="-242"/>
      <point x="690" y="-400"/>
      <point x="489" y="-400" type="curve" smooth="yes"/>
      <point x="477" y="-400" type="line"/>
    </contour>
    <contour>
      <point x="461" y="-524" type="curve" smooth="yes"/>
      <point x="488" y="-524" type="line"/>
      <point x="488" y="-400" type="line"/>
      <point x="472" y="-400" type="line" smooth="yes"/>
      <point x="280" y="-400"/>
      <point x="241" y="-289"/>
      <point x="241" y="-226" type="curve"/>
      <point x="241" y="-219" type="line"/>
      <point x="108" y="-219" type="line"/>
      <point x="108" y="-236" type="line"/>
      <point x="108" y="-362"/>
      <point x="208" y="-524"/>
    </contour>
  </outline>
</glyph>
<glyph name="h" format="2">
  <advance width="1040"/>
  <unicode hex="0068"/>
  <outline>
    <contour>
      <point x="128" y="512" type="line"/>
      <point x="256" y="512" type="line"/>
      <point x="256" y="1050" type="line"/>
      <point x="128" y="1050" type="line"/>
    </contour>
    <contour>
      <point x="128" y="988" type="line"/>
      <point x="256" y="988" type="line"/>
      <point x="256" y="1574" type="line"/>
      <point x="128" y="1574" type="line"/>
    </contour>
    <contour>
      <point x="173" y="761" type="curve"/>
      <point x="255" y="762" type="line"/>
      <point x="292" y="820"/>
      <point x="417" y="926"/>
      <point x="570" y="926" type="curve" smooth="yes"/>
      <point x="742" y="926"/>
      <point x="784" y="827"/>
      <point x="784" y="632" type="curve" smooth="yes"/>
      <point x="784" y="512" type="line"/>
      <point x="912" y="512" type="line"/>
      <point x="912" y="644" type="line" smooth="yes"/>
      <point x="912" y="897"/>
      <point x="815" y="1050"/>
      <point x="570" y="1050" type="curve" smooth="yes"/>
      <point x="369" y="1050"/>
      <point x="219" y="891"/>
    </contour>
    <contour>
      <point x="128" y="0" type="line"/>
      <point x="256" y="0" type="line"/>
      <point x="256" y="538" type="line"/>
      <point x="128" y="538" type="line"/>
    </contour>
    <contour>
      <point x="784" y="0" type="line"/>
      <point x="912" y="0" type="line"/>
      <point x="912" y="538" type="line"/>
      <point x="784" y="538" type="line"/>
    </contour>
  </outline>
</glyph>
<glyph name="i" format="2">
  <advance width="484"/>
  <unicode hex="0069"/>
  <outline>
    <contour>
      <point x="148" y="1272" type="line"/>
      <point x="336" y="1272" type="line"/>
      <point x="336" y="1460" type="line"/>
      <point x="148" y="1460" type="line"/>
    </contour>
    <contour>
      <point x="178" y="512" type="line"/>
      <point x="306" y="512" type="line"/>
      <point x="306" y="1050" type="line"/>
      <point x="178" y="1050" type="line"/>
    </contour>
    <contour>
      <point x="178" y="0" type="line"/>
      <point x="306" y="0" type="line"/>
      <point x="306" y="538" type="line"/>
      <point x="178" y="538" type="line"/>
    </contour>
  </outline>
</glyph>
<glyph name="j" format="2">
  <advance width="444"/>
  <unicode hex="006A"/>
  <outline>
    <contour>
      <point x="158" y="0" type="line"/>
      <point x="286" y="0" type="line"/>
      <point x="286" y="508" type="line"/>
      <point x="158" y="508" type="line"/>
    </contour>
    <contour>
      <point x="158" y="493" type="line"/>
      <point x="286" y="493" type="line"/>
      <point x="286" y="557" type="line"/>
      <point x="158" y="557" type="line"/>
    </contour>
    <contour>
      <point x="158" y="542" type="line"/>
      <point x="286" y="542" type="line"/>
      <point x="286" y="1050" type="line"/>
      <point x="158" y="1050" type="line"/>
    </contour>
    <contour>
      <point x="-77" y="-526" type="line" smooth="yes"/>
      <point x="206" y="-526"/>
      <point x="286" y="-314"/>
      <point x="286" y="-70" type="curve" smooth="yes"/>
      <point x="286" y="62" type="line"/>
      <point x="158" y="62" type="line"/>
      <point x="158" y="-60" type="line" smooth="yes"/>
      <point x="158" y="-245"/>
      <point x="124" y="-402"/>
      <point x="-97" y="-402" type="curve" smooth="yes"/>
      <point x="-123" y="-402" type="line"/>
      <point x="-123" y="-526" type="line"/>
    </contour>
    <contour>
      <point x="128" y="1272" type="line"/>
      <point x="316" y="1272" type="line"/>
      <point x="316" y="1460" type="line"/>
      <point x="128" y="1460" type="line"/>
    </contour>
  </outline>
</glyph>
<glyph name="k" format="2">
  <advance width="1100"/>
  <unicode hex="006B"/>
  <outline>
    <contour>
      <point x="128" y="542" type="line"/>
      <point x="256" y="542" type="line"/>
      <point x="256" y="1050" type="line"/>
      <point x="128" y="1050" type="line"/>
    </contour>
    <contour>
      <point x="128" y="988" type="line"/>
      <point x="256" y="988" type="line"/>
      <point x="256" y="1574" type="line"/>
      <point x="128" y="1574" type="line"/>
    </contour>
    <contour>
      <point x="128" y="493" type="line"/>
      <point x="256" y="493" type="line"/>
      <point x="256" y="557" type="line"/>
      <point x="128" y="557" type="line"/>
    </contour>
    <contour>
      <point x="128" y="0" type="line"/>
      <point x="256" y="0" type="line"/>
      <point x="256" y="508" type="line"/>
      <point x="128" y="508" type="line"/>
    </contour>
    <contour>
      <point x="380" y="577" type="line"/>
      <point x="256" y="577" type="line"/>
      <point x="256" y="518" type="line"/>
      <point x="793" y="5" type="line"/>
      <point x="978" y="5" type="line"/>
    </contour>
    <contour>
      <point x="378" y="520" type="line"/>
      <point x="909" y="1050" type="line"/>
      <point x="728" y="1050" type="line"/>
      <point x="256" y="579" type="line"/>
      <point x="256" y="520" type="line"/>
    </contour>
  </outline>
</glyph>
<glyph name="l" format="2">
  <advance width="665"/>
  <unicode hex="006C"/>
  <outline>
    <contour>
      <point x="128" y="542" type="line"/>
      <point x="256" y="542" type="line"/>
      <point x="256" y="1050" type="line"/>
      <point x="128" y="1050" type="line"/>
    </contour>
    <contour>
      <point x="128" y="988" type="line"/>
      <point x="256" y="988" type="line"/>
      <point x="256" y="1574" type="line"/>
      <point x="128" y="1574" type="line"/>
    </contour>
    <contour>
      <point x="128" y="493" type="line"/>
      <point x="256" y="493" type="line"/>
      <point x="256" y="557" type="line"/>
      <point x="128" y="557" type="line"/>
    </contour>
    <contour>
      <point x="491" y="0" type="curve" smooth="yes"/>
      <point x="537" y="0" type="line"/>
      <point x="537" y="124" type="line"/>
      <point x="511" y="124" type="line" smooth="yes"/>
      <point x="290" y="124"/>
      <point x="256" y="281"/>
      <point x="256" y="466" type="curve" smooth="yes"/>
      <point x="256" y="508" type="line"/>
      <point x="128" y="508" type="line"/>
      <point x="128" y="456" type="line" smooth="yes"/>
      <point x="128" y="212"/>
      <point x="208" y="0"/>
    </contour>
  </outline>
</glyph>
<glyph name="m" format="2">
  <advance width="1608"/>
  <unicode hex="006D"/>
  <outline>
    <component base="_latserifSW"/>
    <component base="_latserifSE" xOffset="-80"/>
    <component base="_lathalfserifNW"/>
    <component base="_latstemSW"/>
    <component base="_latstemNW"/>
    <component base="_latstemSE" xOffset="-80"/>
    <component base="_latserifSE" xOffset="476"/>
    <component base="_latstemSE" xOffset="476"/>
    <contour>
      <point x="748" y="512" type="line"/>
      <point x="876" y="512" type="line"/>
      <point x="876" y="644" type="line" smooth="yes"/>
      <point x="876" y="897"/>
      <point x="819" y="1050"/>
      <point x="604" y="1050" type="curve" smooth="yes"/>
      <point x="423" y="1050"/>
      <point x="284" y="829"/>
      <point x="238" y="699" type="curve"/>
      <point x="320" y="700" type="line"/>
      <point x="357" y="758"/>
      <point x="471" y="926"/>
      <point x="604" y="926" type="curve" smooth="yes"/>
      <point x="729" y="926"/>
      <point x="748" y="847"/>
      <point x="748" y="632" type="curve" smooth="yes"/>
    </contour>
    <contour>
      <point x="1304" y="512" type="line"/>
      <point x="1432" y="512" type="line"/>
      <point x="1432" y="644" type="line" smooth="yes"/>
      <point x="1432" y="897"/>
      <point x="1375" y="1050"/>
      <point x="1160" y="1050" type="curve" smooth="yes"/>
      <point x="979" y="1050"/>
      <point x="833" y="829"/>
      <point x="787" y="699" type="curve"/>
      <point x="869" y="700" type="line"/>
      <point x="906" y="758"/>
      <point x="1027" y="926"/>
      <point x="1160" y="926" type="curve" smooth="yes"/>
      <point x="1285" y="926"/>
      <point x="1304" y="847"/>
      <point x="1304" y="632" type="curve" smooth="yes"/>
    </contour>
  </outline>
</glyph>
<glyph name="q" format="2">
  <advance width="948"/>
  <unicode hex="0071"/>
  <outline>
    <component base="_latstemNE" xOffset="-100"/>
    <component base="_latstemdescE"/>
    <component base="_latserifSE" xOffset="-100" yOffset="-512"/>
    <component base="_latroundarchW"/>
    <component base="_latroundbowlW"/>
    <contour>
      <point x="728" y="0" type="line"/>
      <point x="856" y="0" type="line"/>
      <point x="856" y="538" type="line"/>
      <point x="728" y="538" type="line"/>
    </contour>
  </outline>
</glyph>
<glyph name="r" format="2">
  <advance width="860"/>
  <unicode hex="0072"/>
  <outline>
    <component base="_latlongserifSW"/>
    <component base="_latstemSW"/>
    <component base="_latstemNW"/>
    <component base="_lathalfserifNW"/>
    <contour>
      <point x="238" y="709" type="curve"/>
      <point x="320" y="710" type="line"/>
      <point x="357" y="768"/>
      <point x="497" y="924"/>
      <point x="640" y="924" type="curve"/>
      <point x="640" y="954"/>
      <point x="640" y="999"/>
      <point x="640" y="1050" type="curve"/>
      <point x="449" y="1050"/>
      <point x="284" y="839"/>
    </contour>
    <contour>
      <point x="640" y="714" type="line"/>
      <point x="768" y="714" type="line"/>
      <point x="768" y="986" type="line"/>
      <point x="640" y="986" type="line"/>
    </contour>
    <contour>
      <point x="640" y="924" type="line"/>
      <point x="768" y="924" type="line"/>
      <point x="768" y="1050" type="line"/>
      <point x="640" y="1050" type="line"/>
    </contour>
  </outline>
</glyph>
<glyph name="s" format="2">
  <advance width="940"/>
  <unicode hex="0073"/>
  <outline>
    <component base="_latcurveSE" xOffset="-24"/>
    <component base="_latcurveNE" xOffset="-24"/>
    <component base="_latcurveNE" xScale="-1" yScale="-1" xOffset="964" yOffset="1513"/>
    <component base="_latcurveNE" xOffset="-24" yOffset="-463"/>
    <contour>
      <point x="472" y="-12" type="line"/>
      <point x="472" y="112" type="line"/>
      <point x="456" y="112" type="line" smooth="yes"/>
      <point x="264" y="112"/>
      <point x="220" y="223"/>
      <point x="220" y="276" type="curve"/>
      <point x="220" y="283" type="line"/>
      <point x="92" y="283" type="line"/>
      <point x="92" y="276" type="line"/>
      <point x="92" y="160"/>
      <point x="192" y="-12"/>
      <point x="445" y="-12" type="curve" smooth="yes"/>
    </contour>
    <contour>
      <point x="472" y="1050" type="line"/>
      <point x="445" y="1050" type="line" smooth="yes"/>
      <point x="192" y="1050"/>
      <point x="92" y="878"/>
      <point x="92" y="762" type="curve"/>
      <point x="92" y="755" type="line"/>
      <point x="220" y="755" type="line"/>
      <point x="220" y="762" type="line"/>
      <point x="220" y="815"/>
      <point x="264" y="926"/>
      <point x="456" y="926" type="curve" smooth="yes"/>
      <point x="472" y="926" type="line"/>
    </contour>
  </outline>
</glyph>
<glyph name="t" format="2">
  <advance width="587"/>
  <unicode hex="0074"/>
  <outline>
    <contour>
      <point x="178" y="988" type="line"/>
      <point x="306" y="988" type="line"/>
      <point x="306" y="1284" type="line"/>
      <point x="178" y="1284" type="line"/>
    </contour>
    <contour>
      <point x="0" y="926" type="line"/>
      <point x="587" y="926" type="line"/>
      <point x="587" y="1050" type="line"/>
      <point x="0" y="1050" type="line"/>
    </contour>
    <contour>
      <point x="178" y="502" type="line"/>
      <point x="306" y="502" type="line"/>
      <point x="306" y="1050" type="line"/>
      <point x="178" y="1050" type="line"/>
    </contour>
    <contour>
      <point x="521" y="0" type="curve" smooth="yes"/>
      <point x="577" y="0" type="line"/>
      <point x="577" y="124" type="line"/>
      <point x="541" y="124" type="line" smooth="yes"/>
      <point x="340" y="124"/>
      <point x="306" y="281"/>
      <point x="306" y="496" type="curve" smooth="yes"/>
      <point x="306" y="538" type="line"/>
      <point x="178" y="538" type="line"/>
      <point x="178" y="486" type="line" smooth="yes"/>
      <point x="178" y="212"/>
      <point x="258" y="0"/>
    </contour>
  </outline>
</glyph>
<glyph name="u" format="2">
  <advance width="1040"/>
  <unicode hex="0075"/>
  <outline>
    <contour>
      <point x="912" y="538" type="line"/>
      <point x="784" y="538" type="line"/>
      <point x="784" y="0" type="line"/>
      <point x="912" y="0" type="line"/>
    </contour>
    <contour>
      <point x="867" y="289" type="curve"/>
      <point x="785" y="288" type="line"/>
      <point x="748" y="230"/>
      <point x="623" y="124"/>
      <point x="470" y="124" type="curve" smooth="yes"/>
      <point x="298" y="124"/>
      <point x="256" y="223"/>
      <point x="256" y="418" type="curve" smooth="yes"/>
      <point x="256" y="538" type="line"/>
      <point x="128" y="538" type="line"/>
      <point x="128" y="406" type="line" smooth="yes"/>
      <point x="128" y="153"/>
      <point x="225" y="0"/>
      <point x="470" y="0" type="curve" smooth="yes"/>
      <point x="671" y="0"/>
      <point x="821" y="159"/>
    </contour>
    <contour>
      <point x="912" y="1050" type="line"/>
      <point x="784" y="1050" type="line"/>
      <point x="784" y="512" type="line"/>
      <point x="912" y="512" type="line"/>
    </contour>
    <contour>
      <point x="256" y="1050" type="line"/>
      <point x="128" y="1050" type="line"/>
      <point x="128" y="512" type="line"/>
      <point x="256" y="512" type="line"/>
    </contour>
  </outline>
</glyph>
<glyph name="v" format="2">
  <advance width="1068"/>
  <unicode hex="0076"/>
  <outline>
    <contour>
      <point x="609" y="0" type="line"/>
      <point x="957" y="1038" type="line"/>
      <point x="824" y="1038" type="line"/>
      <point x="534" y="151" type="line"/>
      <point x="243" y="1038" type="line"/>
      <point x="110" y="1038" type="line"/>
      <point x="459" y="0" type="line"/>
    </contour>
    <contour>
      <point x="14" y="914" type="line"/>
      <point x="438" y="914" type="line"/>
      <point x="438" y="1038" type="line"/>
      <point x="14" y="1038" type="line"/>
    </contour>
    <contour>
      <point x="630" y="914" type="line"/>
      <point x="1054" y="914" type="line"/>
      <point x="1054" y="1038" type="line"/>
      <point x="630" y="1038" type="line"/>
    </contour>
  </outline>
</glyph>
<glyph name="w" format="2">
  <advance width="1448"/>
  <unicode hex="0077"/>
  <outline>
    <contour>
      <point x="934" y="0" type="line"/>
      <point x="1105" y="0" type="line"/>
      <point x="1343" y="1038" type="line"/>
      <point x="1220" y="1038" type="line"/>
      <point x="1017" y="151" type="line"/>
      <point x="786" y="1038" type="line"/>
      <point x="667" y="1038" type="line"/>
    </contour>
    <contour>
      <point x="339" y="0" type="line"/>
      <point x="510" y="0" type="line"/>
      <point x="781" y="1038" type="line"/>
      <point x="662" y="1038" type="line"/>
      <point x="427" y="151" type="line"/>
      <point x="223" y="1038" type="line"/>
      <point x="100" y="1038" type="line"/>
    </contour>
    <contour>
      <point x="14" y="914" type="line"/>
      <point x="400" y="914" type="line"/>
      <point x="400" y="1038" type="line"/>
      <point x="14" y="1038" type="line"/>
    </contour>
    <contour>
      <point x="1048" y="914" type="line"/>
      <point x="1434" y="914" type="line"/>
      <point x="1434" y="1038" type="line"/>
      <point x="1048" y="1038" type="line"/>
    </contour>
  </outline>
</glyph>
<glyph name="x" format="2">
  <advance width="1028"/>
  <unicode hex="0078"/>
  <outline>
    <component base="_latserifNW" xOffset="-34"/>
    <component base="_latserifNE" xOffset="-66"/>
    <contour>
      <point x="589" y="0" type="line"/>
      <point x="937" y="1038" type="line"/>
      <point x="804" y="1038" type="line"/>
      <point x="514" y="151" type="line"/>
      <point x="223" y="1038" type="line"/>
      <point x="90" y="1038" type="line"/>
      <point x="439" y="0" type="line"/>
    </contour>
  </outline>
</glyph>
<glyph name="y" format="2">
  <advance width="1080"/>
  <unicode hex="0079"/>
  <outline>
    <contour>
      <point x="579" y="-78" type="line"/>
      <point x="953" y="1038" type="line"/>
      <point x="820" y="1038" type="line"/>
      <point x="530" y="151" type="line"/>
      <point x="239" y="1038" type="line"/>
      <point x="106" y="1038" type="line"/>
      <point x="481" y="-78" type="line"/>
    </contour>
    <contour>
      <point x="189" y="-526" type="line" smooth="yes"/>
      <point x="349" y="-526"/>
      <point x="450" y="-467"/>
      <point x="549" y="-170" type="curve" smooth="yes"/>
      <point x="640" y="103" type="line"/>
      <point x="512" y="103" type="line"/>
      <point x="436" y="-117" type="line" smooth="yes"/>
      <point x="351" y="-362"/>
      <point x="310" y="-402"/>
      <point x="179" y="-402" type="curve" smooth="yes"/>
      <point x="81" y="-402" type="line"/>
      <point x="81" y="-526" type="line"/>
    </contour>
    <contour>
      <point x="30" y="914" type="line"/>
      <point x="454" y="914" type="line"/>
      <point x="454" y="1038" type="line"/>
      <point x="30" y="1038" type="line"/>
    </contour>
    <contour>
      <point x="626" y="914" type="line"/>
      <point x="1050" y="914" type="line"/>
      <point x="1050" y="1038" type="line"/>
      <point x="626" y="1038" type="line"/>
    </contour>
  </outline>
</glyph>
<glyph name="z" format="2">
  <advance width="979"/>
  <unicode hex="007A"/>
  <outline>
    <contour>
      <point x="108" y="0" type="line"/>
      <point x="170" y="0" type="line"/>
      <point x="861" y="914" type="line"/>
      <point x="861" y="1038" type="line"/>
      <point x="799" y="1038" type="line"/>
      <point x="108" y="124" type="line"/>
    </contour>
    <contour>
      <point x="139" y="0" type="line"/>
      <point x="871" y="0" type="line"/>
      <point x="871" y="124" type="line"/>
      <point x="139" y="124" type="line"/>
    </contour>
    <contour>
      <point x="743" y="62" type="line"/>
      <point x="871" y="62" type="line"/>
      <point x="871" y="324" type="line"/>
      <point x="743" y="324" type="line"/>
    </contour>
    <contour>
      <point x="128" y="714" type="line"/>
      <point x="256" y="714" type="line"/>
      <point x="256" y="976" type="line"/>
      <point x="128" y="976" type="line"/>
    </contour>
    <contour>
      <point x="128" y="914" type="line"/>
      <point x="821" y="914" type="line"/>
      <point x="821" y="1038" type="line"/>
      <point x="128" y="1038" type="line"/>
    </contour>
  </outline>
</glyph>
<glyph name="macron" format="2">
  <advance width="1020"/>
  <unicode hex="00AF"/>
  <outline>
    <contour>
      <point x="155" y="1259" type="line"/>
      <point x="865" y="1259" type="line"/>
      <point x="865" y="1383" type="line"/>
      <point x="155" y="1383" type="line"/>
    </contour>
  </outline>
</glyph>
<glyph name="multiply" format="2">
  <advance width="1180"/>
  <unicode hex="00D7"/>
  <outline>
    <contour>
      <point x="289" y="0" type="line"/>
      <point x="1028" y="1046" type="line"/>
      <point x="860" y="1048" type="line"/>
      <point x="127" y="0" type="line"/>
    </contour>
    <contour>
      <point x="870" y="0" type="line"/>
      <point x="1028" y="0" type="line"/>
      <point x="294" y="1048" type="line"/>
      <point x="127" y="1048" type="line"/>
    </contour>
  </outline>
</glyph>
<glyph name="divide" format="2">
  <advance width="1180"/>
  <unicode hex="00F7"/>
  <outline>
    <contour>
      <point x="645" y="787" type="line"/>
      <point x="645" y="923" type="line"/>
      <point x="520" y="923" type="line"/>
      <point x="520" y="787" type="line"/>
    </contour>
    <contour>
      <point x="1028" y="462" type="line"/>
      <point x="1028" y="564" type="line"/>
      <point x="127" y="567" type="line"/>
      <point x="127" y="462" type="line"/>
    </contour>
    <contour>
      <point x="645" y="115" type="line"/>
      <point x="645" y="252" type="line"/>
      <point x="520" y="252" type="line"/>
      <point x="520" y="115" type="line"/>
    </contour>
  </outline>
</glyph>
<glyph name="tildecomb" format="2">
  <unicode hex="0303"/>
  <anchor x="-510" y="1100" name="_U"/>
  <outline>
    <contour>
      <point x="-893" y="1219" type="line"/>
      <point x="-755" y="1219" type="line"/>
      <point x="-666" y="1382" type="line"/>
      <point x="-302" y="1209" type="line"/>
      <point x="-122" y="1534" type="line"/>
      <point x="-261" y="1534" type="line"/>
      <point x="-353" y="1371" type="line"/>
      <point x="-718" y="1544" type="line"/>
    </contour>
  </outline>
</glyph>
<glyph name="cedillacomb" format="2">
  <unicode hex="0327"/>
  <anchor x="-510" y="-50" name="_L"/>
  <outline>
    <contour>
      <point x="-627" y="-419" type="line"/>
      <point x="-425" y="-419"/>
      <point x="-344" y="-309"/>
      <point x="-344" y="-224" type="curve" smooth="yes"/>
      <point x="-344" y="-146"/>
      <point x="-388" y="-98"/>
      <point x="-460" y="-78" type="curve"/>
      <point x="-460" y="20" type="line"/>
      <point x="-560" y="20" type="line"/>
      <point x="-560" y="-154" type="line"/>
      <point x="-511" y="-160"/>
      <point x="-462" y="-189"/>
      <point x="-464" y="-238" type="curve" smooth="yes"/>
      <point x="-466" y="-294"/>
      <point x="-526" y="-328"/>
      <point x="-627" y="-328" type="curve"/>
    </contour>
  </outline>
</glyph>
<glyph name="endash" format="2">
  <advance width="1180"/>
  <unicode hex="2013"/>
  <outline>
    <contour>
      <point x="1028" y="462" type="line"/>
      <point x="1028" y="564" type="line"/>
      <point x="127" y="567" type="line"/>
      <point x="127" y="462" type="line"/>
    </contour>
  </outline>
</glyph>
<glyph name="horizontalbar" format="2">
  <advance width="1748"/>
  <unicode hex="2015"/>
  <outline>
    <contour>
      <point x="0" y="473" type="line"/>
      <point x="1748" y="473" type="line"/>
      <point x="1748" y="577" type="line"/>
      <point x="0" y="577" type="line"/>
    </contour>
  </outline>
</glyph>
<glyph name="quoteleft" format="2">
  <advance width="620"/>
  <unicode hex="2018"/>
  <outline>
    <contour>
      <point x="544" y="1213" type="line"/>
      <point x="569" y="1232" type="line"/>
      <point x="394" y="1503" type="line"/>
      <point x="308" y="1430" type="line"/>
    </contour>
    <contour>
      <point x="210" y="1410" type="line"/>
      <point x="410" y="1410" type="line"/>
      <point x="410" y="1610" type="line"/>
      <point x="210" y="1610" type="line"/>
    </contour>
  </outline>
</glyph>
<glyph name="quoteright" format="2">
  <advance width="620"/>
  <unicode hex="2019"/>
  <outline>
    <contour>
      <point x="404" y="1412" type="line"/>
      <point x="404" y="1612" type="line"/>
      <point x="205" y="1612" type="line"/>
      <point x="205" y="1475" type="line"/>
      <point x="52" y="1217" type="line"/>
      <point x="315" y="1412" type="line"/>
    </contour>
  </outline>
</glyph>
<glyph name="perthousand" format="2">
  <advance width="1934"/>
  <unicode hex="2030"/>
  <outline>
    <contour>
      <point x="138" y="0" type="line"/>
      <point x="278" y="0" type="line"/>
      <point x="1226" y="1446" type="line"/>
      <point x="1086" y="1446" type="line"/>
    </contour>
    <contour>
      <point x="1024" y="-12" type="curve"/>
      <point x="1167" y="-12"/>
      <point x="1256" y="117"/>
      <point x="1256" y="355" type="curve" smooth="yes"/>
      <point x="1256" y="594"/>
      <point x="1167" y="723"/>
      <point x="1024" y="723" type="curve"/>
      <point x="880" y="723"/>
      <point x="791" y="594"/>
      <point x="791" y="355" type="curve" smooth="yes"/>
      <point x="791" y="117"/>
      <point x="880" y="-12"/>
    </contour>
    <contour>
      <point x="1024" y="88" type="curve" smooth="yes"/>
      <point x="938" y="88"/>
      <point x="895" y="193"/>
      <point x="895" y="355" type="curve" smooth="yes"/>
      <point x="895" y="517"/>
      <point x="938" y="623"/>
      <point x="1024" y="623" type="curve" smooth="yes"/>
      <point x="1109" y="623"/>
      <point x="1152" y="517"/>
      <point x="1152" y="355" type="curve" smooth="yes"/>
      <point x="1152" y="193"/>
      <point x="1109" y="88"/>
    </contour>
    <contour>
      <point x="341" y="723" type="curve"/>
      <point x="484" y="723"/>
      <point x="573" y="852"/>
      <point x="573" y="1090" type="curve" smooth="yes"/>
      <point x="573" y="1329"/>
      <point x="484" y="1458"/>
      <point x="341" y="1458" type="curve"/>
      <point x="197" y="1458"/>
      <point x="108" y="1329"/>
      <point x="108" y="1090" type="curve" smooth="yes"/>
      <point x="108" y="852"/>
      <point x="197" y="723"/>
    </contour>
    <contour>
      <point x="341" y="823" type="curve" smooth="yes"/>
      <point x="255" y="823"/>
      <point x="212" y="928"/>
      <point x="212" y="1090" type="curve" smooth="yes"/>
      <point x="212" y="1252"/>
      <point x="255" y="1358"/>
      <point x="341" y="1358" type="curve" smooth="yes"/>
      <point x="426" y="1358"/>
      <point x="469" y="1252"/>
      <point x="469" y="1090" type="curve" smooth="yes"/>
      <point x="469" y="928"/>
      <point x="426" y="823"/>
    </contour>
    <contour>
      <point x="1594" y="-12" type="curve"/>
      <point x="1737" y="-12"/>
      <point x="1826" y="117"/>
      <point x="1826" y="355" type="curve" smooth="yes"/>
      <point x="1826" y="594"/>
      <point x="1737" y="723"/>
      <point x="1594" y="723" type="curve"/>
      <point x="1450" y="723"/>
      <point x="1361" y="594"/>
      <point x="1361" y="355" type="curve" smooth="yes"/>
      <point x="1361" y="117"/>
      <point x="1450" y="-12"/>
    </contour>
    <contour>
      <point x="1594" y="88" type="curve" smooth="yes"/>
      <point x="1508" y="88"/>
      <point x="1465" y="193"/>
      <point x="1465" y="355" type="curve" smooth="yes"/>
      <point x="1465" y="517"/>
      <point x="1508" y="623"/>
      <point x="1594" y="623" type="curve" smooth="yes"/>
      <point x="1679" y="623"/>
      <point x="1722" y="517"/>
      <point x="1722" y="355" type="curve" smooth="yes"/>
      <point x="1722" y="193"/>
      <point x="1679" y="88"/>
    </contour>
  </outline>
</glyph>
<glyph name="uniA902" format="2">
  <advance width="920"/>
  <unicode hex="A902"/>
  <outline>
    <contour>
      <point x="516" y="0" type="line"/>
      <point x="825" y="819" type="line"/>
      <point x="723" y="819" type="line"/>
      <point x="460" y="114" type="line"/>
      <point x="197" y="819" type="line"/>
      <point x="95" y="819" type="line"/>
      <point x="404" y="0" type="line"/>
    </contour>
  </outline>
</glyph>
<glyph name="uniA906" format="2">
  <advance width="920"/>
  <unicode hex="A906"/>
  <outline>
    <component base="sqWS"/>
    <component base="midW"/>
    <component base="sqWN"/>
    <component base="circleNE"/>
    <contour>
      <point x="180" y="148" type="line"/>
      <point x="534" y="724" type="line"/>
      <point x="534" y="820" type="line"/>
      <point x="479" y="820" type="line"/>
      <point x="180" y="334" type="line"/>
    </contour>
    <contour>
      <point x="620" y="80" type="curve" smooth="yes"/>
      <point x="581" y="80"/>
      <point x="550" y="111"/>
      <point x="550" y="150" type="curve" smooth="yes"/>
      <point x="550" y="189"/>
      <point x="581" y="220"/>
      <point x="620" y="220" type="curve" smooth="yes"/>
      <point x="659" y="220"/>
      <point x="690" y="189"/>
      <point x="690" y="150" type="curve" smooth="yes"/>
      <point x="690" y="111"/>
      <point x="659" y="80"/>
    </contour>
    <contour>
      <point x="630" y="0" type="curve" smooth="yes"/>
      <point x="734" y="0"/>
      <point x="820" y="80"/>
      <point x="820" y="222" type="curve" smooth="yes"/>
      <point x="820" y="560" type="line"/>
      <point x="720" y="560" type="line"/>
      <point x="720" y="261" type="line"/>
      <point x="692" y="287"/>
      <point x="659" y="300"/>
      <point x="620" y="300" type="curve" smooth="yes"/>
      <point x="537" y="300"/>
      <point x="470" y="233"/>
      <point x="470" y="150" type="curve" smooth="yes"/>
      <point x="470" y="67"/>
      <point x="526" y="0"/>
    </contour>
  </outline>
</glyph>
<glyph name="uniA908" format="2">
  <advance width="1180"/>
  <unicode hex="A908"/>
  <outline>
    <component base="_klmidS"/>
    <component base="_klcircleSW"/>
    <component base="_klmidW"/>
    <component base="_klsqWN"/>
    <contour>
      <point x="673" y="0" type="line"/>
      <point x="819" y="0" type="line" smooth="yes"/>
      <point x="962" y="0"/>
      <point x="1052" y="92"/>
      <point x="1052" y="256" type="curve" smooth="yes"/>
      <point x="1052" y="378" type="line"/>
      <point x="924" y="378" type="line"/>
      <point x="924" y="266" type="line" smooth="yes"/>
      <point x="924" y="161"/>
      <point x="880" y="124"/>
      <point x="798" y="124" type="curve" smooth="yes"/>
      <point x="673" y="124" type="line"/>
    </contour>
  </outline>
</glyph>
<glyph name="uniA90A" format="2">
  <advance width="1280"/>
  <unicode hex="A90A"/>
  <outline>
    <component base="sqSW"/>
    <component base="midE" xOffset="102"/>
    <component base="sqES" xOffset="102"/>
    <component base="sqSE" xOffset="102"/>
    <component base="sqES" xOffset="-486"/>
    <component base="midE" xOffset="-486"/>
    <contour>
      <point x="435" y="712" type="line"/>
      <point x="563" y="712" type="line"/>
      <point x="563" y="794" type="line" smooth="yes"/>
      <point x="563" y="957"/>
      <point x="517" y="1050"/>
      <point x="374" y="1050" type="curve" smooth="yes"/>
      <point x="343" y="1050" type="line"/>
      <point x="343" y="927" type="line"/>
      <point x="353" y="927" type="line" smooth="yes"/>
      <point x="422" y="927"/>
      <point x="435" y="901"/>
      <point x="435" y="783" type="curve" smooth="yes"/>
    </contour>
    <contour>
      <point x="128" y="712" type="line"/>
      <point x="256" y="712" type="line"/>
      <point x="256" y="783" type="line" smooth="yes"/>
      <point x="256" y="901"/>
      <point x="269" y="927"/>
      <point x="338" y="927" type="curve" smooth="yes"/>
      <point x="348" y="927" type="line"/>
      <point x="348" y="1050" type="line"/>
      <point x="317" y="1050" type="line" smooth="yes"/>
      <point x="174" y="1050"/>
      <point x="128" y="957"/>
      <point x="128" y="794" type="curve" smooth="yes"/>
    </contour>
    <contour>
      <point x="128" y="0" type="line"/>
      <point x="256" y="0" type="line"/>
      <point x="256" y="210" type="line"/>
      <point x="128" y="210" type="line"/>
    </contour>
    <contour>
      <point x="1024" y="712" type="line"/>
      <point x="1152" y="712" type="line"/>
      <point x="1152" y="794" type="line" smooth="yes"/>
      <point x="1152" y="957"/>
      <point x="1062" y="1050"/>
      <point x="919" y="1050" type="curve" smooth="yes"/>
      <point x="824" y="1050" type="line"/>
      <point x="824" y="927" type="line"/>
      <point x="899" y="927" type="line" smooth="yes"/>
      <point x="980" y="927"/>
      <point x="1024" y="888"/>
      <point x="1024" y="783" type="curve" smooth="yes"/>
    </contour>
    <contour>
      <point x="805" y="1050" type="line"/>
      <point x="209" y="461" type="line" smooth="yes"/>
      <point x="157" y="410"/>
      <point x="128" y="374"/>
      <point x="128" y="241" type="curve" smooth="yes"/>
      <point x="128" y="187" type="line"/>
      <point x="256" y="187" type="line"/>
      <point x="256" y="230" type="line" smooth="yes"/>
      <point x="256" y="328"/>
      <point x="269" y="344"/>
      <point x="303" y="378" type="curve" smooth="yes"/>
      <point x="855" y="927" type="line"/>
      <point x="855" y="1050" type="line"/>
    </contour>
  </outline>
</glyph>
<glyph name="uniA90C" format="2">
  <advance width="920"/>
  <unicode hex="A90C"/>
  <outline>
    <component base="sqSW"/>
    <component base="sqWS"/>
    <component base="midW"/>
    <component base="sqWN"/>
    <component base="midline" yOffset="-40"/>
    <component base="midE"/>
    <component base="sqES"/>
    <component base="sqSE"/>
    <contour>
      <point x="720" y="556" type="line"/>
      <point x="820" y="556" type="line"/>
      <point x="820" y="620" type="line" smooth="yes"/>
      <point x="820" y="748"/>
      <point x="750" y="820"/>
      <point x="638" y="820" type="curve" smooth="yes"/>
      <point x="564" y="820" type="line"/>
      <point x="564" y="724" type="line"/>
      <point x="622" y="724" type="line" smooth="yes"/>
      <point x="686" y="724"/>
      <point x="720" y="694"/>
      <point x="720" y="612" type="curve" smooth="yes"/>
    </contour>
    <contour>
      <point x="586" y="820" type="line"/>
      <point x="544" y="820" type="line"/>
      <point x="148" y="418" type="line"/>
      <point x="148" y="280" type="line"/>
      <point x="586" y="724" type="line"/>
    </contour>
  </outline>
</glyph>
<glyph name="uniA910" format="2">
  <advance width="1180"/>
  <unicode hex="A910"/>
  <outline>
    <component base="sqWN"/>
    <component base="descSW"/>
    <component base="midW"/>
    <component base="midS"/>
    <component base="sqSE"/>
    <contour>
      <point x="1052" y="124" type="line"/>
      <point x="628" y="325" type="line"/>
      <point x="500" y="325" type="line"/>
      <point x="500" y="248" type="line"/>
      <point x="924" y="47" type="line"/>
      <point x="924" y="47"/>
      <point x="1052" y="47"/>
      <point x="1052" y="47" type="curve"/>
    </contour>
    <contour>
      <point x="500" y="248" type="curve"/>
      <point x="904" y="248"/>
      <point x="1068" y="428"/>
      <point x="1068" y="678" type="curve" smooth="yes"/>
      <point x="1068" y="912"/>
      <point x="913" y="1066"/>
      <point x="687" y="1066" type="curve" smooth="yes"/>
      <point x="461" y="1066"/>
      <point x="275" y="894"/>
      <point x="167" y="562" type="curve"/>
      <point x="252" y="493" type="line"/>
      <point x="372" y="826"/>
      <point x="529" y="942"/>
      <point x="673" y="942" type="curve" smooth="yes"/>
      <point x="835" y="942"/>
      <point x="944" y="859"/>
      <point x="944" y="668" type="curve" smooth="yes"/>
      <point x="944" y="501"/>
      <point x="823" y="350"/>
      <point x="500" y="350" type="curve"/>
      <point x="500" y="321"/>
      <point x="500" y="277"/>
    </contour>
  </outline>
</glyph>
<glyph name="uniA912" format="2">
  <advance width="1180"/>
  <unicode hex="A912"/>
  <outline>
    <component base="sqWS"/>
    <component base="midW"/>
    <component base="headcir"/>
    <component base="sqWN"/>
    <contour>
      <point x="770" y="-12" type="curve"/>
      <point x="934" y="-12"/>
      <point x="1068" y="140"/>
      <point x="1068" y="350" type="curve" smooth="yes"/>
      <point x="1068" y="554"/>
      <point x="910" y="702"/>
      <point x="697" y="702" type="curve" smooth="yes"/>
      <point x="461" y="702"/>
      <point x="255" y="546"/>
      <point x="167" y="214" type="curve"/>
      <point x="252" y="145" type="line"/>
      <point x="352" y="478"/>
      <point x="539" y="578"/>
      <point x="683" y="578" type="curve" smooth="yes"/>
      <point x="845" y="578"/>
      <point x="944" y="491"/>
      <point x="944" y="340" type="curve" smooth="yes"/>
      <point x="944" y="213"/>
      <point x="873" y="74"/>
      <point x="770" y="74" type="curve"/>
      <point x="770" y="45"/>
      <point x="770" y="17"/>
    </contour>
    <contour>
      <point x="1052" y="776" type="line"/>
      <point x="1052" y="902" type="line"/>
      <point x="256" y="1050" type="line"/>
      <point x="128" y="1050" type="line"/>
      <point x="128" y="948" type="line"/>
    </contour>
  </outline>
</glyph>
<glyph name="uniA917" format="2">
  <advance width="1180"/>
  <unicode hex="A917"/>
  <outline>
    <component base="_klsqNEshort"/>
    <component base="_klsqEN"/>
    <component base="_klmidE"/>
    <component base="_klcircleSE"/>
    <component base="_klmidS"/>
    <component base="_klcircleSW"/>
    <component base="_klmidW"/>
    <component base="_klsqWN"/>
    <component base="_klsqNWshort"/>
    <contour>
      <point x="880" y="77" type="line"/>
      <point x="927" y="77" type="line"/>
      <point x="927" y="200" type="line"/>
      <point x="589" y="538" type="line"/>
      <point x="589" y="368" type="line"/>
    </contour>
    <contour>
      <point x="251" y="77" type="line"/>
      <point x="298" y="77" type="line"/>
      <point x="589" y="368" type="line"/>
      <point x="589" y="538" type="line"/>
      <point x="251" y="200" type="line"/>
    </contour>
  </outline>
</glyph>
<glyph name="uniA91A" format="2">
  <advance width="1180"/>
  <unicode hex="A91A"/>
  <outline>
    <component base="_klsqWS"/>
    <component base="_klmidW"/>
    <component base="_klsqWN"/>
    <component base="_klcircleNE"/>
    <component base="_klmidE"/>
    <component base="_kldescSE"/>
    <component base="_kldiagNW"/>
    <component base="_klsqSW"/>
    <contour>
      <point x="465" y="926" type="line"/>
      <point x="745" y="926" type="line"/>
      <point x="745" y="1050" type="line"/>
      <point x="465" y="1050" type="line"/>
    </contour>
  </outline>
</glyph>
<glyph name="uniA920" format="2">
  <advance width="920"/>
  <unicode hex="A920"/>
  <outline>
    <component base="sqWN"/>
    <component base="sqEN"/>
    <component base="midE"/>
    <component base="circleSE"/>
    <component base="midS"/>
    <component base="circleSW"/>
    <component base="serifWS"/>
    <contour>
      <point x="236" y="820" type="line"/>
      <point x="196" y="820" type="line"/>
      <point x="196" y="724" type="line"/>
      <point x="460" y="520" type="line"/>
      <point x="460" y="646" type="line"/>
    </contour>
    <contour>
      <point x="724" y="820" type="line"/>
      <point x="685" y="820" type="line"/>
      <point x="460" y="646" type="line"/>
      <point x="460" y="520" type="line"/>
      <point x="724" y="724" type="line"/>
    </contour>
  </outline>
</glyph>
<glyph name="uniA921" format="2">
  <advance width="1180"/>
  <unicode hex="A921"/>
  <outline>
    <component base="sqSW"/>
    <component base="sqWS"/>
    <component base="midW"/>
    <component base="sqWN"/>
    <component base="sqES"/>
    <component base="midE"/>
    <component base="ascNE"/>
    <contour>
      <point x="1052" y="38" type="line"/>
      <point x="256" y="1050" type="line"/>
      <point x="128" y="1050" type="line"/>
      <point x="128" y="1013" type="line"/>
      <point x="924" y="0" type="line"/>
      <point x="924" y="0"/>
      <point x="1052" y="0"/>
      <point x="1052" y="0" type="curve"/>
    </contour>
  </outline>
</glyph>
<glyph name="uniA923" format="2">
  <advance width="1180"/>
  <unicode hex="A923"/>
  <outline>
    <component base="sqNWshort"/>
    <component base="sqWN"/>
    <component base="midW"/>
    <component base="diagSE" xOffset="-50"/>
    <component base="sqNEshort"/>
    <component base="sqEN"/>
    <component base="midE"/>
    <component base="circleSEshort"/>
    <contour>
      <point x="361" y="0" type="curve" smooth="yes"/>
      <point x="437" y="0" type="line"/>
      <point x="437" y="124" type="line"/>
      <point x="381" y="124" type="line" smooth="yes"/>
      <point x="300" y="124"/>
      <point x="256" y="161"/>
      <point x="256" y="266" type="curve" smooth="yes"/>
      <point x="256" y="338" type="line"/>
      <point x="128" y="338" type="line"/>
      <point x="128" y="256" type="line" smooth="yes"/>
      <point x="128" y="92"/>
      <point x="218" y="0"/>
    </contour>
  </outline>
</glyph>
<glyph name="uniA925" format="2">
  <advance width="1180"/>
  <unicode hex="A925"/>
  <outline>
    <component base="circleSW"/>
    <component base="midS"/>
    <component base="midW"/>
    <component base="circleSE"/>
    <component base="circleNW"/>
    <component base="midE"/>
    <component base="midN"/>
    <component base="circleNE"/>
    <contour>
      <point x="590" y="610" type="curve" smooth="yes"/>
      <point x="760" y="610"/>
      <point x="920" y="690"/>
      <point x="1000" y="810" type="curve"/>
      <point x="950" y="926" type="line"/>
      <point x="876" y="806"/>
      <point x="730" y="734"/>
      <point x="590" y="734" type="curve" smooth="yes"/>
      <point x="450" y="734"/>
      <point x="304" y="806"/>
      <point x="230" y="926" type="curve"/>
      <point x="180" y="810" type="line"/>
      <point x="260" y="690"/>
      <point x="420" y="610"/>
    </contour>
  </outline>
</glyph>
<glyph name="uniA926" format="2">
  <unicode hex="A926"/>
  <outline>
    <contour>
      <point x="-515" y="1276" type="line"/>
      <point x="-515" y="1476" type="line"/>
      <point x="-713" y="1476" type="line"/>
      <point x="-713" y="1276" type="line"/>
    </contour>
  </outline>
</glyph>
<glyph name="uniA927" format="2">
  <unicode hex="A927"/>
  <outline>
    <contour>
      <point x="-388" y="1311" type="line"/>
      <point x="-760" y="1573" type="line"/>
      <point x="-996" y="1573" type="line"/>
      <point x="-367" y="1148" type="line"/>
      <point x="-157" y="1148" type="line"/>
    </contour>
  </outline>
</glyph>
<glyph name="uniA928" format="2">
  <unicode hex="A928"/>
  <outline>
    <contour>
      <point x="-155" y="1169" type="line"/>
      <point x="-590" y="1584" type="line"/>
      <point x="-1025" y="1169" type="line"/>
      <point x="-845" y="1169" type="line"/>
      <point x="-590" y="1412" type="line"/>
      <point x="-335" y="1169" type="line"/>
    </contour>
  </outline>
</glyph>
<glyph name="uniA929" format="2">
  <unicode hex="A929"/>
  <outline>
    <component base="_klcircleSW" xOffset="-1180" yOffset="1169"/>
    <component base="_klmidS" xOffset="-1180" yOffset="1169"/>
    <component base="_klcircleSE" xOffset="-1180" yOffset="1169"/>
    <contour>
      <point x="-1052" y="1480" type="line"/>
      <point x="-924" y="1480" type="line"/>
      <point x="-924" y="1562" type="line"/>
      <point x="-1052" y="1562" type="line"/>
    </contour>
    <contour>
      <point x="-256" y="1480" type="line"/>
      <point x="-128" y="1480" type="line"/>
      <point x="-128" y="1562" type="line"/>
      <point x="-256" y="1562" type="line"/>
    </contour>
  </outline>
</glyph>
<glyph name="uniA92A" format="2">
  <unicode hex="A92A"/>
  <outline>
    <component base="circleSW" xOffset="-1180" yOffset="1169"/>
    <component base="midS" xOffset="-1180" yOffset="1169"/>
    <component base="circleSE" xOffset="-1180" yOffset="1169"/>
    <contour>
      <point x="924" y="1203" type="line"/>
      <point x="1052" y="1203" type="line"/>
      <point x="1052" y="1306" type="line" smooth="yes"/>
      <point x="1052" y="1469"/>
      <point x="962" y="1562"/>
      <point x="819" y="1562" type="curve" smooth="yes"/>
      <point x="673" y="1562" type="line"/>
      <point x="673" y="1438" type="line"/>
      <point x="798" y="1438" type="line" smooth="yes"/>
      <point x="880" y="1438"/>
      <point x="924" y="1400"/>
      <point x="924" y="1295" type="curve" smooth="yes"/>
    </contour>
    <contour>
      <point x="-819" y="0" type="curve" smooth="yes"/>
      <point x="-673" y="0" type="line"/>
      <point x="-673" y="124" type="line"/>
      <point x="-799" y="124" type="line" smooth="yes"/>
      <point x="-880" y="124"/>
      <point x="-924" y="161"/>
      <point x="-924" y="266" type="curve" smooth="yes"/>
      <point x="-924" y="338" type="line"/>
      <point x="-1052" y="338" type="line"/>
      <point x="-1052" y="256" type="line" smooth="yes"/>
      <point x="-1052" y="92"/>
      <point x="-962" y="0"/>
    </contour>
    <contour>
      <point x="-745" y="0" type="line"/>
      <point x="-435" y="0" type="line"/>
      <point x="-435" y="124" type="line"/>
      <point x="-745" y="124" type="line"/>
    </contour>
    <contour>
      <point x="-1052" y="333" type="line"/>
      <point x="-924" y="333" type="line"/>
      <point x="-924" y="717" type="line"/>
      <point x="-1052" y="717" type="line"/>
    </contour>
    <contour>
      <point x="-507" y="0" type="line"/>
      <point x="-361" y="0" type="line" smooth="yes"/>
      <point x="-218" y="0"/>
      <point x="-128" y="92"/>
      <point x="-128" y="256" type="curve" smooth="yes"/>
      <point x="-128" y="338" type="line"/>
      <point x="-256" y="338" type="line"/>
      <point x="-256" y="266" type="line" smooth="yes"/>
      <point x="-256" y="161"/>
      <point x="-300" y="124"/>
      <point x="-382" y="124" type="curve" smooth="yes"/>
      <point x="-507" y="124" type="line"/>
    </contour>
    <contour>
      <point x="-1052" y="712" type="line"/>
      <point x="-924" y="712" type="line"/>
      <point x="-924" y="783" type="line" smooth="yes"/>
      <point x="-924" y="888"/>
      <point x="-880" y="926"/>
      <point x="-799" y="926" type="curve" smooth="yes"/>
      <point x="-673" y="926" type="line"/>
      <point x="-673" y="1050" type="line"/>
      <point x="-819" y="1050" type="line" smooth="yes"/>
      <point x="-962" y="1050"/>
      <point x="-1052" y="957"/>
      <point x="-1052" y="794" type="curve" smooth="yes"/>
    </contour>
    <contour>
      <point x="-256" y="333" type="line"/>
      <point x="-128" y="333" type="line"/>
      <point x="-128" y="717" type="line"/>
      <point x="-256" y="717" type="line"/>
    </contour>
    <contour>
      <point x="-745" y="926" type="line"/>
      <point x="-435" y="926" type="line"/>
      <point x="-435" y="1050" type="line"/>
      <point x="-745" y="1050" type="line"/>
    </contour>
    <contour>
      <point x="361" y="0" type="curve" smooth="yes"/>
      <point x="437" y="0" type="line"/>
      <point x="437" y="124" type="line"/>
      <point x="381" y="124" type="line" smooth="yes"/>
      <point x="300" y="124"/>
      <point x="256" y="161"/>
      <point x="256" y="266" type="curve" smooth="yes"/>
      <point x="256" y="338" type="line"/>
      <point x="128" y="338" type="line"/>
      <point x="128" y="256" type="line" smooth="yes"/>
      <point x="128" y="92"/>
      <point x="218" y="0"/>
    </contour>
    <contour>
      <point x="-1052" y="1480" type="line"/>
      <point x="-924" y="1480" type="line"/>
      <point x="-924" y="1562" type="line"/>
      <point x="-1052" y="1562" type="line"/>
    </contour>
    <contour>
      <point x="-256" y="712" type="line"/>
      <point x="-128" y="712" type="line"/>
      <point x="-128" y="794" type="line" smooth="yes"/>
      <point x="-128" y="957"/>
      <point x="-218" y="1050"/>
      <point x="-361" y="1050" type="curve" smooth="yes"/>
      <point x="-507" y="1050" type="line"/>
      <point x="-507" y="926" type="line"/>
      <point x="-382" y="926" type="line" smooth="yes"/>
      <point x="-300" y="926"/>
      <point x="-256" y="888"/>
      <point x="-256" y="783" type="curve" smooth="yes"/>
    </contour>
    <contour>
      <point x="128" y="333" type="line"/>
      <point x="256" y="333" type="line"/>
      <point x="256" y="717" type="line"/>
      <point x="128" y="717" type="line"/>
    </contour>
    <contour>
      <point x="-684" y="1374" type="line"/>
      <point x="-496" y="1374" type="line"/>
      <point x="-496" y="1562" type="line"/>
      <point x="-684" y="1562" type="line"/>
    </contour>
    <contour>
      <point x="922" y="0" type="line"/>
      <point x="1144" y="0" type="line"/>
      <point x="1144" y="124" type="line"/>
      <point x="922" y="124" type="line"/>
    </contour>
    <contour>
      <point x="924" y="0" type="line"/>
      <point x="1052" y="0" type="line"/>
      <point x="1052" y="338" type="line"/>
      <point x="924" y="338" type="line"/>
    </contour>
    <contour>
      <point x="128" y="712" type="line"/>
      <point x="256" y="712" type="line"/>
      <point x="256" y="1229" type="line"/>
      <point x="128" y="1229" type="line"/>
    </contour>
    <contour>
      <point x="128" y="712" type="line"/>
      <point x="256" y="712" type="line"/>
      <point x="256" y="783" type="line" smooth="yes"/>
      <point x="256" y="888"/>
      <point x="300" y="926"/>
      <point x="381" y="926" type="curve" smooth="yes"/>
      <point x="507" y="926" type="line"/>
      <point x="507" y="1050" type="line"/>
      <point x="361" y="1050" type="line" smooth="yes"/>
      <point x="218" y="1050"/>
      <point x="128" y="957"/>
      <point x="128" y="794" type="curve" smooth="yes"/>
    </contour>
    <contour>
      <point x="-256" y="1480" type="line"/>
      <point x="-128" y="1480" type="line"/>
      <point x="-128" y="1562" type="line"/>
      <point x="-256" y="1562" type="line"/>
    </contour>
    <contour>
      <point x="924" y="333" type="line"/>
      <point x="1052" y="333" type="line"/>
      <point x="1052" y="717" type="line"/>
      <point x="924" y="717" type="line"/>
    </contour>
    <contour>
      <point x="435" y="926" type="line"/>
      <point x="745" y="926" type="line"/>
      <point x="745" y="1050" type="line"/>
      <point x="435" y="1050" type="line"/>
    </contour>
    <contour>
      <point x="128" y="1203" type="line"/>
      <point x="256" y="1203" type="line"/>
      <point x="256" y="1295" type="line" smooth="yes"/>
      <point x="256" y="1400"/>
      <point x="300" y="1438"/>
      <point x="381" y="1438" type="curve" smooth="yes"/>
      <point x="507" y="1438" type="line"/>
      <point x="507" y="1562" type="line"/>
      <point x="361" y="1562" type="line" smooth="yes"/>
      <point x="218" y="1562"/>
      <point x="128" y="1469"/>
      <point x="128" y="1306" type="curve" smooth="yes"/>
    </contour>
    <contour>
      <point x="924" y="712" type="line"/>
      <point x="1052" y="712" type="line"/>
      <point x="1052" y="794" type="line" smooth="yes"/>
      <point x="1052" y="957"/>
      <point x="962" y="1050"/>
      <point x="819" y="1050" type="curve" smooth="yes"/>
      <point x="673" y="1050" type="line"/>
      <point x="673" y="926" type="line"/>
      <point x="798" y="926" type="line" smooth="yes"/>
      <point x="880" y="926"/>
      <point x="924" y="888"/>
      <point x="924" y="783" type="curve" smooth="yes"/>
    </contour>
    <contour>
      <point x="435" y="1438" type="line"/>
      <point x="744" y="1438" type="line"/>
      <point x="744" y="1562" type="line"/>
      <point x="435" y="1562" type="line"/>
    </contour>
    <contour>
      <point x="719" y="1191" type="line"/>
      <point x="1052" y="1191" type="line"/>
      <point x="1052" y="1293" type="line"/>
      <point x="719" y="1293" type="line"/>
    </contour>
  </outline>
</glyph>
<glyph name="uniA92C" format="2">
  <unicode hex="A92C"/>
  <outline>
    <contour>
      <point x="-611" y="2" type="line"/>
      <point x="-697" y="66" type="line"/>
      <point x="-780" y="47"/>
      <point x="-832" y="-22"/>
      <point x="-832" y="-111" type="curve" smooth="yes"/>
      <point x="-832" y="-205" type="line" smooth="yes"/>
      <point x="-832" y="-332"/>
      <point x="-757" y="-410"/>
      <point x="-660" y="-410" type="curve" smooth="yes"/>
      <point x="-275" y="-410" type="line" smooth="yes"/>
      <point x="-198" y="-410"/>
      <point x="-115" y="-353"/>
      <point x="-115" y="-205" type="curve" smooth="yes"/>
      <point x="-115" y="-135" type="line"/>
      <point x="-221" y="-135" type="line"/>
      <point x="-221" y="-215" type="line" smooth="yes"/>
      <point x="-221" y="-281"/>
      <point x="-248" y="-314"/>
      <point x="-303" y="-314" type="curve" smooth="yes"/>
      <point x="-631" y="-316" type="line" smooth="yes"/>
      <point x="-699" y="-316"/>
      <point x="-733" y="-280"/>
      <point x="-733" y="-207" type="curve" smooth="yes"/>
      <point x="-733" y="-142" type="line" smooth="yes"/>
      <point x="-733" y="-82"/>
      <point x="-727" y="-59"/>
      <point x="-692" y="-27" type="curve"/>
    </contour>
  </outline>
</glyph>
<glyph name="uniA92D" format="2">
  <unicode hex="A92D"/>
  <outline>
    <component base="midS" xOffset="-1180" yOffset="-525"/>
    <contour>
      <point x="-819" y="-525" type="curve" smooth="yes"/>
      <point x="-673" y="-525" type="line"/>
      <point x="-673" y="-401" type="line"/>
      <point x="-799" y="-401" type="line" smooth="yes"/>
      <point x="-880" y="-401"/>
      <point x="-924" y="-364"/>
      <point x="-924" y="-259" type="curve" smooth="yes"/>
      <point x="-924" y="-217" type="line"/>
      <point x="-1052" y="-217" type="line"/>
      <point x="-1052" y="-269" type="line" smooth="yes"/>
      <point x="-1052" y="-433"/>
      <point x="-962" y="-525"/>
    </contour>
    <contour>
      <point x="-684" y="-298" type="line"/>
      <point x="-496" y="-298" type="line"/>
      <point x="-496" y="-110" type="line"/>
      <point x="-684" y="-110" type="line"/>
    </contour>
    <contour>
      <point x="-507" y="-525" type="line"/>
      <point x="-361" y="-525" type="line" smooth="yes"/>
      <point x="-218" y="-525"/>
      <point x="-128" y="-433"/>
      <point x="-128" y="-269" type="curve" smooth="yes"/>
      <point x="-128" y="-187" type="line"/>
      <point x="-256" y="-187" type="line"/>
      <point x="-256" y="-259" type="line" smooth="yes"/>
      <point x="-256" y="-364"/>
      <point x="-300" y="-401"/>
      <point x="-382" y="-401" type="curve" smooth="yes"/>
      <point x="-507" y="-401" type="line"/>
    </contour>
    <contour>
      <point x="-841" y="15" type="curve"/>
      <point x="-906" y="102" type="line"/>
      <point x="-995" y="42"/>
      <point x="-1052" y="-60"/>
      <point x="-1052" y="-182" type="curve" smooth="yes"/>
      <point x="-1052" y="-234" type="line"/>
      <point x="-924" y="-234" type="line"/>
      <point x="-924" y="-193" type="line" smooth="yes"/>
      <point x="-924" y="-93"/>
      <point x="-897" y="-33"/>
    </contour>
  </outline>
</glyph>
<glyph name="uniA92E" format="2">
  <advance width="1416"/>
  <unicode hex="A92E"/>
  <outline>
    <contour>
      <point x="108" y="0" type="curve"/>
      <point x="283" y="0" type="line"/>
      <point x="354" y="80"/>
      <point x="513" y="160"/>
      <point x="708" y="160" type="curve" smooth="yes"/>
      <point x="903" y="160"/>
      <point x="1062" y="80"/>
      <point x="1133" y="0" type="curve"/>
      <point x="1308" y="0" type="line"/>
      <point x="1218" y="170"/>
      <point x="978" y="300"/>
      <point x="708" y="300" type="curve" smooth="yes"/>
      <point x="438" y="300"/>
      <point x="198" y="170"/>
    </contour>
  </outline>
</glyph>
<glyph name="uniA92F" format="2">
  <advance width="367"/>
  <unicode hex="A92F"/>
  <outline>
    <contour>
      <point x="247" y="0" type="line"/>
      <point x="247" y="1046" type="line"/>
      <point x="120" y="1048" type="line"/>
      <point x="120" y="0" type="line"/>
    </contour>
  </outline>
</glyph>
<glyph name="repchar" format="2">
  <advance width="1971"/>
  <unicode hex="FFFD"/>
  <outline>
    <contour>
      <point x="985" y="-223" type="line"/>
      <point x="1961" y="752" type="line"/>
      <point x="985" y="1728" type="line"/>
      <point x="10" y="752" type="line"/>
    </contour>
    <contour>
      <point x="915" y="120" type="line"/>
      <point x="915" y="280" type="line"/>
      <point x="1075" y="280" type="line"/>
      <point x="1075" y="120" type="line"/>
    </contour>
    <contour>
      <point x="944" y="366" type="line"/>
      <point x="944" y="534" type="line" smooth="yes"/>
      <point x="944" y="669"/>
      <point x="1029" y="759"/>
      <point x="1105" y="845" type="curve" smooth="yes"/>
      <point x="1165" y="913"/>
      <point x="1219" y="978"/>
      <point x="1219" y="1060" type="curve" smooth="yes"/>
      <point x="1219" y="1214"/>
      <point x="1121" y="1277"/>
      <point x="995" y="1277" type="curve" smooth="yes"/>
      <point x="869" y="1277"/>
      <point x="752" y="1199"/>
      <point x="752" y="987" type="curve" smooth="yes"/>
      <point x="752" y="970"/>
      <point x="752" y="967"/>
      <point x="752" y="948" type="curve"/>
      <point x="733" y="948"/>
      <point x="669" y="948"/>
      <point x="649" y="948" type="curve"/>
      <point x="649" y="966"/>
      <point x="649" y="969"/>
      <point x="649" y="988" type="curve" smooth="yes"/>
      <point x="649" y="1246"/>
      <point x="802" y="1379"/>
      <point x="995" y="1379" type="curve" smooth="yes"/>
      <point x="1188" y="1379"/>
      <point x="1321" y="1268"/>
      <point x="1321" y="1060" type="curve" smooth="yes"/>
      <point x="1321" y="944"/>
      <point x="1258" y="864"/>
      <point x="1192" y="789" type="curve" smooth="yes"/>
      <point x="1121" y="707"/>
      <point x="1046" y="632"/>
      <point x="1046" y="526" type="curve" smooth="yes"/>
      <point x="1046" y="366" type="line"/>
    </contour>
  </outline>
</glyph>
<glyph name="_klascNW" format="2">
  <advance width="1180"/>
  <outline>
    <contour>
      <point x="924" y="1203" type="line"/>
      <point x="1052" y="1203" type="line"/>
      <point x="1052" y="1306" type="line" smooth="yes"/>
      <point x="1052" y="1469"/>
      <point x="962" y="1562"/>
      <point x="819" y="1562" type="curve" smooth="yes"/>
      <point x="673" y="1562" type="line"/>
      <point x="673" y="1438" type="line"/>
      <point x="798" y="1438" type="line" smooth="yes"/>
      <point x="880" y="1438"/>
      <point x="924" y="1400"/>
      <point x="924" y="1295" type="curve" smooth="yes"/>
    </contour>
    <contour>
      <point x="128" y="712" type="line"/>
      <point x="256" y="712" type="line"/>
      <point x="256" y="1229" type="line"/>
      <point x="128" y="1229" type="line"/>
    </contour>
    <contour>
      <point x="128" y="1203" type="line"/>
      <point x="256" y="1203" type="line"/>
      <point x="256" y="1295" type="line" smooth="yes"/>
      <point x="256" y="1400"/>
      <point x="300" y="1438"/>
      <point x="381" y="1438" type="curve" smooth="yes"/>
      <point x="507" y="1438" type="line"/>
      <point x="507" y="1562" type="line"/>
      <point x="361" y="1562" type="line" smooth="yes"/>
      <point x="218" y="1562"/>
      <point x="128" y="1469"/>
      <point x="128" y="1306" type="curve" smooth="yes"/>
    </contour>
    <contour>
      <point x="719" y="1191" type="line"/>
      <point x="1052" y="1191" type="line"/>
      <point x="1052" y="1293" type="line"/>
      <point x="988" y="1293" type="line"/>
      <point x="719" y="1293" type="line"/>
    </contour>
    <contour>
      <point x="435" y="1438" type="line"/>
      <point x="744" y="1438" type="line"/>
      <point x="744" y="1562" type="line"/>
      <point x="435" y="1562" type="line"/>
    </contour>
  </outline>
</glyph>
<glyph name="_klcircleSW" format="2">
  <advance width="1180"/>
  <outline>
    <contour>
      <point x="361" y="0" type="curve" smooth="yes"/>
      <point x="507" y="0" type="line"/>
      <point x="507" y="124" type="line"/>
      <point x="381" y="124" type="line" smooth="yes"/>
      <point x="300" y="124"/>
      <point x="256" y="161"/>
      <point x="256" y="266" type="curve" smooth="yes"/>
      <point x="256" y="338" type="line"/>
      <point x="128" y="338" type="line"/>
      <point x="128" y="256" type="line" smooth="yes"/>
      <point x="128" y="92"/>
      <point x="218" y="0"/>
    </contour>
  </outline>
</glyph>
<glyph name="_klcircleSWshort" format="2">
  <advance width="1180"/>
  <outline>
    <contour>
      <point x="361" y="0" type="curve" smooth="yes"/>
      <point x="437" y="0" type="line"/>
      <point x="437" y="124" type="line"/>
      <point x="381" y="124" type="line" smooth="yes"/>
      <point x="300" y="124"/>
      <point x="256" y="161"/>
      <point x="256" y="266" type="curve" smooth="yes"/>
      <point x="256" y="338" type="line"/>
      <point x="128" y="338" type="line"/>
      <point x="128" y="256" type="line" smooth="yes"/>
      <point x="128" y="92"/>
      <point x="218" y="0"/>
    </contour>
  </outline>
</glyph>
<glyph name="_klcirclecomp" format="2">
  <advance width="1180"/>
  <outline>
    <contour>
      <point x="924" y="712" type="line"/>
      <point x="1052" y="712" type="line"/>
      <point x="1052" y="794" type="line" smooth="yes"/>
      <point x="1052" y="957"/>
      <point x="962" y="1050"/>
      <point x="819" y="1050" type="curve" smooth="yes"/>
      <point x="673" y="1050" type="line"/>
      <point x="673" y="926" type="line"/>
      <point x="798" y="926" type="line" smooth="yes"/>
      <point x="880" y="926"/>
      <point x="924" y="888"/>
      <point x="924" y="783" type="curve" smooth="yes"/>
    </contour>
    <contour>
      <point x="361" y="0" type="curve" smooth="yes"/>
      <point x="507" y="0" type="line"/>
      <point x="507" y="124" type="line"/>
      <point x="381" y="124" type="line" smooth="yes"/>
      <point x="300" y="124"/>
      <point x="256" y="161"/>
      <point x="256" y="266" type="curve" smooth="yes"/>
      <point x="256" y="338" type="line"/>
      <point x="128" y="338" type="line"/>
      <point x="128" y="256" type="line" smooth="yes"/>
      <point x="128" y="92"/>
      <point x="218" y="0"/>
    </contour>
    <contour>
      <point x="435" y="0" type="line"/>
      <point x="744" y="0" type="line"/>
      <point x="744" y="124" type="line"/>
      <point x="435" y="124" type="line"/>
    </contour>
    <contour>
      <point x="128" y="334" type="line"/>
      <point x="461" y="334" type="line"/>
      <point x="461" y="436" type="line"/>
      <point x="128" y="436" type="line"/>
    </contour>
    <contour>
      <point x="128" y="333" type="line"/>
      <point x="256" y="333" type="line"/>
      <point x="256" y="717" type="line"/>
      <point x="128" y="717" type="line"/>
    </contour>
    <contour>
      <point x="128" y="614" type="line"/>
      <point x="461" y="614" type="line"/>
      <point x="461" y="716" type="line"/>
      <point x="128" y="716" type="line"/>
    </contour>
    <contour>
      <point x="673" y="0" type="line"/>
      <point x="819" y="0" type="line" smooth="yes"/>
      <point x="962" y="0"/>
      <point x="1052" y="92"/>
      <point x="1052" y="256" type="curve" smooth="yes"/>
      <point x="1052" y="338" type="line"/>
      <point x="924" y="338" type="line"/>
      <point x="924" y="266" type="line" smooth="yes"/>
      <point x="924" y="161"/>
      <point x="880" y="124"/>
      <point x="798" y="124" type="curve" smooth="yes"/>
      <point x="673" y="124" type="line"/>
    </contour>
    <contour>
      <point x="128" y="712" type="line"/>
      <point x="256" y="712" type="line"/>
      <point x="256" y="783" type="line" smooth="yes"/>
      <point x="256" y="888"/>
      <point x="300" y="926"/>
      <point x="381" y="926" type="curve" smooth="yes"/>
      <point x="507" y="926" type="line"/>
      <point x="507" y="1050" type="line"/>
      <point x="361" y="1050" type="line" smooth="yes"/>
      <point x="218" y="1050"/>
      <point x="128" y="957"/>
      <point x="128" y="794" type="curve" smooth="yes"/>
    </contour>
    <contour>
      <point x="719" y="334" type="line"/>
      <point x="1052" y="334" type="line"/>
      <point x="1052" y="436" type="line"/>
      <point x="719" y="436" type="line"/>
    </contour>
    <contour>
      <point x="924" y="333" type="line"/>
      <point x="1052" y="333" type="line"/>
      <point x="1052" y="717" type="line"/>
      <point x="924" y="717" type="line"/>
    </contour>
    <contour>
      <point x="719" y="614" type="line"/>
      <point x="1052" y="614" type="line"/>
      <point x="1052" y="716" type="line"/>
      <point x="719" y="716" type="line"/>
    </contour>
    <contour>
      <point x="435" y="926" type="line"/>
      <point x="744" y="926" type="line"/>
      <point x="744" y="1050" type="line"/>
      <point x="435" y="1050" type="line"/>
    </contour>
  </outline>
</glyph>
<glyph name="_kldescSW" format="2">
  <advance width="1180"/>
  <outline>
    <contour>
      <point x="361" y="-525" type="curve" smooth="yes"/>
      <point x="507" y="-525" type="line"/>
      <point x="507" y="-401" type="line"/>
      <point x="381" y="-401" type="line" smooth="yes"/>
      <point x="300" y="-401"/>
      <point x="256" y="-364"/>
      <point x="256" y="-259" type="curve" smooth="yes"/>
      <point x="256" y="-166" type="line"/>
      <point x="128" y="-166" type="line"/>
      <point x="128" y="-269" type="line" smooth="yes"/>
      <point x="128" y="-433"/>
      <point x="218" y="-525"/>
    </contour>
    <contour>
      <point x="128" y="-218" type="line"/>
      <point x="256" y="-218" type="line"/>
      <point x="256" y="338" type="line"/>
      <point x="128" y="338" type="line"/>
    </contour>
  </outline>
</glyph>
<glyph name="_kldescserifSW" format="2">
  <advance width="1180"/>
  <outline>
    <contour>
      <point x="361" y="-526" type="curve" smooth="yes"/>
      <point x="507" y="-526" type="line"/>
      <point x="507" y="-402" type="line"/>
      <point x="381" y="-402" type="line" smooth="yes"/>
      <point x="300" y="-402"/>
      <point x="256" y="-365"/>
      <point x="256" y="-260" type="curve" smooth="yes"/>
      <point x="256" y="-167" type="line"/>
      <point x="128" y="-167" type="line"/>
      <point x="128" y="-270" type="line" smooth="yes"/>
      <point x="128" y="-434"/>
      <point x="218" y="-526"/>
    </contour>
    <contour>
      <point x="435" y="-526" type="line"/>
      <point x="742" y="-526" type="line"/>
      <point x="742" y="-402" type="line"/>
      <point x="435" y="-402" type="line"/>
    </contour>
    <contour>
      <point x="128" y="-242" type="line"/>
      <point x="192" y="-242" type="line"/>
      <point x="461" y="-242" type="line"/>
      <point x="461" y="-140" type="line"/>
      <point x="128" y="-140" type="line"/>
    </contour>
  </outline>
</glyph>
<glyph name="_kldiagNWSE" format="2">
  <advance width="1180"/>
  <outline>
    <contour>
      <point x="1052" y="378" type="line"/>
      <point x="256" y="755" type="line"/>
      <point x="128" y="755" type="line"/>
      <point x="128" y="678" type="line"/>
      <point x="924" y="301" type="line"/>
      <point x="924" y="301"/>
      <point x="1052" y="301"/>
      <point x="1052" y="301" type="curve"/>
    </contour>
  </outline>
</glyph>
<glyph name="_kldiagSWNE" format="2">
  <advance width="1180"/>
  <outline>
    <contour>
      <point x="128" y="373" type="line"/>
      <point x="128" y="301" type="line"/>
      <point x="128" y="301"/>
      <point x="256" y="301"/>
      <point x="256" y="301" type="curve"/>
      <point x="1052" y="683" type="line"/>
      <point x="1052" y="755" type="line"/>
      <point x="988" y="755" type="line"/>
      <point x="924" y="755" type="line"/>
    </contour>
  </outline>
</glyph>
<glyph name="_klmidN" format="2">
  <advance width="1180"/>
  <outline>
    <contour>
      <point x="435" y="926" type="line"/>
      <point x="745" y="926" type="line"/>
      <point x="745" y="1050" type="line"/>
      <point x="435" y="1050" type="line"/>
    </contour>
  </outline>
</glyph>
<glyph name="_klserifENshort" format="2">
  <advance width="1180"/>
  <outline>
    <contour>
      <point x="757" y="614" type="line"/>
      <point x="1052" y="614" type="line"/>
      <point x="1052" y="716" type="line"/>
      <point x="988" y="716" type="line"/>
      <point x="757" y="716" type="line"/>
    </contour>
  </outline>
</glyph>
<glyph name="_klsqNE" format="2">
  <advance width="1180"/>
  <outline>
    <contour>
      <point x="693" y="926" type="line"/>
      <point x="1052" y="926" type="line"/>
      <point x="1052" y="1050" type="line"/>
      <point x="693" y="1050" type="line"/>
    </contour>
  </outline>
</glyph>
<glyph name="_klsqNW" format="2">
  <advance width="1180"/>
  <outline>
    <contour>
      <point x="128" y="926" type="line"/>
      <point x="487" y="926" type="line"/>
      <point x="487" y="1050" type="line"/>
      <point x="128" y="1050" type="line"/>
    </contour>
  </outline>
</glyph>
<glyph name="_klsqSE" format="2">
  <advance width="1180"/>
  <outline>
    <contour>
      <point x="693" y="0" type="line"/>
      <point x="1052" y="0" type="line"/>
      <point x="1052" y="124" type="line"/>
      <point x="693" y="124" type="line"/>
    </contour>
  </outline>
</glyph>
<glyph name="_klsqSW" format="2">
  <advance width="1180"/>
  <outline>
    <contour>
      <point x="128" y="0" type="line"/>
      <point x="487" y="0" type="line"/>
      <point x="487" y="124" type="line"/>
      <point x="128" y="124" type="line"/>
    </contour>
  </outline>
</glyph>
<glyph name="_klsqSWshort" format="2">
  <advance width="1180"/>
  <outline>
    <contour>
      <point x="128" y="0" type="line"/>
      <point x="417" y="0" type="line"/>
      <point x="417" y="124" type="line"/>
      <point x="128" y="124" type="line"/>
    </contour>
  </outline>
</glyph>
<glyph name="_klsqWS" format="2">
  <advance width="1180"/>
  <outline>
    <contour>
      <point x="128" y="0" type="line"/>
      <point x="256" y="0" type="line"/>
      <point x="256" y="338" type="line"/>
      <point x="128" y="338" type="line"/>
    </contour>
  </outline>
</glyph>
<glyph name="_latarchE" format="2">
  <advance width="1148"/>
  <outline>
    <contour>
      <point x="828" y="512" type="line"/>
      <point x="956" y="512" type="line"/>
      <point x="956" y="624" type="line" smooth="yes"/>
      <point x="956" y="907"/>
      <point x="899" y="1050"/>
      <point x="664" y="1050" type="curve" smooth="yes"/>
      <point x="463" y="1050"/>
      <point x="284" y="829"/>
      <point x="238" y="699" type="curve"/>
      <point x="320" y="700" type="line"/>
      <point x="357" y="758"/>
      <point x="501" y="926"/>
      <point x="654" y="926" type="curve" smooth="yes"/>
      <point x="799" y="926"/>
      <point x="828" y="847"/>
      <point x="828" y="602" type="curve" smooth="yes"/>
    </contour>
  </outline>
</glyph>
<glyph name="_latarchW" format="2">
  <advance width="1164"/>
  <outline>
    <contour>
      <point x="108" y="512" type="line"/>
      <point x="236" y="512" type="line"/>
      <point x="236" y="602" type="line" smooth="yes"/>
      <point x="236" y="847"/>
      <point x="265" y="926"/>
      <point x="410" y="926" type="curve" smooth="yes"/>
      <point x="563" y="926"/>
      <point x="707" y="762"/>
      <point x="744" y="704" type="curve"/>
      <point x="826" y="703" type="line"/>
      <point x="780" y="833"/>
      <point x="601" y="1050"/>
      <point x="400" y="1050" type="curve" smooth="yes"/>
      <point x="165" y="1050"/>
      <point x="108" y="907"/>
      <point x="108" y="624" type="curve" smooth="yes"/>
    </contour>
  </outline>
</glyph>
<glyph name="_latbowlE" format="2">
  <advance width="1148"/>
  <outline>
    <contour>
      <point x="644" y="-12" type="curve" smooth="yes"/>
      <point x="879" y="-12"/>
      <point x="956" y="153"/>
      <point x="956" y="436" type="curve" smooth="yes"/>
      <point x="956" y="538" type="line"/>
      <point x="828" y="538" type="line"/>
      <point x="828" y="448" type="line" smooth="yes"/>
      <point x="828" y="203"/>
      <point x="789" y="112"/>
      <point x="644" y="112" type="curve" smooth="yes"/>
      <point x="491" y="112"/>
      <point x="357" y="292"/>
      <point x="320" y="350" type="curve"/>
      <point x="238" y="351" type="line"/>
      <point x="284" y="221"/>
      <point x="443" y="-12"/>
    </contour>
  </outline>
</glyph>
<glyph name="_latbowlW" format="2">
  <advance width="1128"/>
  <outline>
    <contour>
      <point x="514" y="-12" type="curve" smooth="yes"/>
      <point x="715" y="-12"/>
      <point x="844" y="147"/>
      <point x="890" y="277" type="curve"/>
      <point x="808" y="276" type="line"/>
      <point x="771" y="218"/>
      <point x="667" y="112"/>
      <point x="514" y="112" type="curve" smooth="yes"/>
      <point x="369" y="112"/>
      <point x="320" y="191"/>
      <point x="320" y="406" type="curve" smooth="yes"/>
      <point x="320" y="538" type="line"/>
      <point x="192" y="538" type="line"/>
      <point x="192" y="394" type="line" smooth="yes"/>
      <point x="192" y="141"/>
      <point x="279" y="-12"/>
    </contour>
  </outline>
</glyph>
<glyph name="_latcirNE" format="2">
  <advance width="1020"/>
  <outline>
    <contour>
      <point x="784" y="522" type="line"/>
      <point x="912" y="522" type="line"/>
      <point x="912" y="554" type="line" smooth="yes"/>
      <point x="912" y="877"/>
      <point x="797" y="1050"/>
      <point x="534" y="1050" type="curve" smooth="yes"/>
      <point x="508" y="1050" type="line"/>
      <point x="508" y="926" type="line"/>
      <point x="523" y="926" type="line" smooth="yes"/>
      <point x="731" y="926"/>
      <point x="784" y="778"/>
      <point x="784" y="543" type="curve" smooth="yes"/>
    </contour>
  </outline>
</glyph>
<glyph name="_latcirSE" format="2">
  <advance width="988"/>
  <outline>
    <contour>
      <point x="492" y="-12" type="line"/>
      <point x="518" y="-12" type="line" smooth="yes"/>
      <point x="781" y="-12"/>
      <point x="896" y="172"/>
      <point x="896" y="496" type="curve" smooth="yes"/>
      <point x="896" y="528" type="line"/>
      <point x="768" y="528" type="line"/>
      <point x="768" y="506" type="line" smooth="yes"/>
      <point x="768" y="271"/>
      <point x="715" y="112"/>
      <point x="507" y="112" type="curve" smooth="yes"/>
      <point x="492" y="112" type="line"/>
    </contour>
  </outline>
</glyph>
<glyph name="_latcirSW" format="2">
  <advance width="988"/>
  <outline>
    <contour>
      <point x="470" y="-12" type="curve" smooth="yes"/>
      <point x="496" y="-12" type="line"/>
      <point x="496" y="112" type="line"/>
      <point x="480" y="112" type="line" smooth="yes"/>
      <point x="272" y="112"/>
      <point x="220" y="261"/>
      <point x="220" y="506" type="curve" smooth="yes"/>
      <point x="220" y="528" type="line"/>
      <point x="92" y="528" type="line"/>
      <point x="92" y="496" type="line" smooth="yes"/>
      <point x="92" y="182"/>
      <point x="207" y="-12"/>
    </contour>
  </outline>
</glyph>
<glyph name="_latcrossbar" format="2">
  <advance width="748"/>
  <outline>
    <contour>
      <point x="104" y="914" type="line"/>
      <point x="611" y="914" type="line"/>
      <point x="611" y="1038" type="line"/>
      <point x="104" y="1038" type="line"/>
    </contour>
  </outline>
</glyph>
<glyph name="_latcurveNE" format="2">
  <advance width="988"/>
  <outline>
    <contour>
      <point x="492" y="1050" type="line"/>
      <point x="492" y="926" type="line"/>
      <point x="508" y="926" type="line" smooth="yes"/>
      <point x="700" y="926"/>
      <point x="739" y="815"/>
      <point x="739" y="752" type="curve"/>
      <point x="739" y="745" type="line"/>
      <point x="872" y="745" type="line"/>
      <point x="872" y="762" type="line"/>
      <point x="872" y="888"/>
      <point x="772" y="1050"/>
      <point x="519" y="1050" type="curve" smooth="yes"/>
    </contour>
  </outline>
</glyph>
<glyph name="_latcurveSE" format="2">
  <advance width="988"/>
  <outline>
    <contour>
      <point x="492" y="-12" type="line"/>
      <point x="519" y="-12" type="line" smooth="yes"/>
      <point x="772" y="-12"/>
      <point x="872" y="162"/>
      <point x="872" y="288" type="curve"/>
      <point x="872" y="305" type="line"/>
      <point x="739" y="305" type="line"/>
      <point x="739" y="298" type="line"/>
      <point x="739" y="235"/>
      <point x="700" y="112"/>
      <point x="508" y="112" type="curve" smooth="yes"/>
      <point x="492" y="112" type="line"/>
    </contour>
  </outline>
</glyph>
<glyph name="_latdot" format="2">
  <advance width="604"/>
  <outline>
    <contour>
      <point x="208" y="1272" type="line"/>
      <point x="396" y="1272" type="line"/>
      <point x="396" y="1460" type="line"/>
      <point x="208" y="1460" type="line"/>
    </contour>
  </outline>
</glyph>
<glyph name="_lathalfserifNW" format="2">
  <advance width="1128"/>
  <outline>
    <contour>
      <point x="48" y="914" type="line"/>
      <point x="256" y="914" type="line"/>
      <point x="256" y="1038" type="line"/>
      <point x="48" y="1038" type="line"/>
    </contour>
  </outline>
</glyph>
<glyph name="_lathalfserifSE" format="2">
  <advance width="1128"/>
  <outline>
    <contour>
      <point x="872" y="0" type="line"/>
      <point x="1064" y="0" type="line"/>
      <point x="1064" y="124" type="line"/>
      <point x="872" y="124" type="line"/>
    </contour>
  </outline>
</glyph>
<glyph name="_lathalfserifascW" format="2">
  <advance width="1128"/>
  <outline>
    <contour>
      <point x="40" y="1450" type="line"/>
      <point x="256" y="1450" type="line"/>
      <point x="256" y="1574" type="line"/>
      <point x="40" y="1574" type="line"/>
    </contour>
  </outline>
</glyph>
<glyph name="_latlongserifSW" format="2">
  <advance width="1128"/>
  <outline>
    <contour>
      <point x="48" y="0" type="line"/>
      <point x="514" y="0" type="line"/>
      <point x="514" y="124" type="line"/>
      <point x="48" y="124" type="line"/>
    </contour>
  </outline>
</glyph>
<glyph name="_latroundarchE" format="2">
  <advance width="1128"/>
  <outline>
    <contour>
      <point x="828" y="512" type="line"/>
      <point x="956" y="512" type="line"/>
      <point x="956" y="614" type="line" smooth="yes"/>
      <point x="956" y="877"/>
      <point x="859" y="1050"/>
      <point x="624" y="1050" type="curve" smooth="yes"/>
      <point x="423" y="1050"/>
      <point x="284" y="859"/>
      <point x="238" y="729" type="curve"/>
      <point x="320" y="730" type="line"/>
      <point x="357" y="788"/>
      <point x="471" y="926"/>
      <point x="624" y="926" type="curve" smooth="yes"/>
      <point x="769" y="926"/>
      <point x="828" y="817"/>
      <point x="828" y="602" type="curve" smooth="yes"/>
    </contour>
  </outline>
</glyph>
<glyph name="_latroundarchW" format="2">
  <advance width="1128"/>
  <outline>
    <contour>
      <point x="92" y="512" type="line"/>
      <point x="220" y="512" type="line"/>
      <point x="220" y="602" type="line" smooth="yes"/>
      <point x="220" y="817"/>
      <point x="279" y="926"/>
      <point x="424" y="926" type="curve" smooth="yes"/>
      <point x="577" y="926"/>
      <point x="691" y="788"/>
      <point x="728" y="730" type="curve"/>
      <point x="810" y="729" type="line"/>
      <point x="764" y="859"/>
      <point x="625" y="1050"/>
      <point x="424" y="1050" type="curve" smooth="yes"/>
      <point x="189" y="1050"/>
      <point x="92" y="877"/>
      <point x="92" y="614" type="curve" smooth="yes"/>
    </contour>
  </outline>
</glyph>
<glyph name="_latroundbowlE" format="2">
  <advance width="1128"/>
  <outline>
    <contour>
      <point x="624" y="-12" type="curve" smooth="yes"/>
      <point x="859" y="-12"/>
      <point x="956" y="161"/>
      <point x="956" y="424" type="curve" smooth="yes"/>
      <point x="956" y="538" type="line"/>
      <point x="828" y="538" type="line"/>
      <point x="828" y="436" type="line" smooth="yes"/>
      <point x="828" y="221"/>
      <point x="769" y="112"/>
      <point x="624" y="112" type="curve" smooth="yes"/>
      <point x="471" y="112"/>
      <point x="357" y="250"/>
      <point x="320" y="308" type="curve"/>
      <point x="238" y="309" type="line"/>
      <point x="284" y="179"/>
      <point x="423" y="-12"/>
    </contour>
  </outline>
</glyph>
<glyph name="_latroundbowlW" format="2">
  <advance width="1128"/>
  <outline>
    <contour>
      <point x="424" y="-12" type="curve" smooth="yes"/>
      <point x="625" y="-12"/>
      <point x="764" y="179"/>
      <point x="810" y="309" type="curve"/>
      <point x="728" y="308" type="line"/>
      <point x="691" y="250"/>
      <point x="577" y="112"/>
      <point x="424" y="112" type="curve" smooth="yes"/>
      <point x="279" y="112"/>
      <point x="220" y="221"/>
      <point x="220" y="436" type="curve" smooth="yes"/>
      <point x="220" y="538" type="line"/>
      <point x="92" y="538" type="line"/>
      <point x="92" y="424" type="line" smooth="yes"/>
      <point x="92" y="171"/>
      <point x="189" y="-12"/>
    </contour>
  </outline>
</glyph>
<glyph name="_latserifNE" format="2">
  <advance width="1148"/>
  <outline>
    <contour>
      <point x="676" y="914" type="line"/>
      <point x="1108" y="914" type="line"/>
      <point x="1108" y="1038" type="line"/>
      <point x="676" y="1038" type="line"/>
    </contour>
  </outline>
</glyph>
<glyph name="_latserifNW" format="2">
  <advance width="1148"/>
  <outline>
    <contour>
      <point x="40" y="914" type="line"/>
      <point x="472" y="914" type="line"/>
      <point x="472" y="1038" type="line"/>
      <point x="40" y="1038" type="line"/>
    </contour>
  </outline>
</glyph>
<glyph name="_latserifSE" format="2">
  <advance width="1148"/>
  <outline>
    <contour>
      <point x="700" y="0" type="line"/>
      <point x="1084" y="0" type="line"/>
      <point x="1084" y="124" type="line"/>
      <point x="700" y="124" type="line"/>
    </contour>
  </outline>
</glyph>
<glyph name="_latserifSW" format="2">
  <advance width="1128"/>
  <outline>
    <contour>
      <point x="64" y="0" type="line"/>
      <point x="448" y="0" type="line"/>
      <point x="448" y="124" type="line"/>
      <point x="64" y="124" type="line"/>
    </contour>
  </outline>
</glyph>
<glyph name="_latstemNE" format="2">
  <advance width="1148"/>
  <outline>
    <contour>
      <point x="828" y="512" type="line"/>
      <point x="956" y="512" type="line"/>
      <point x="956" y="1038" type="line"/>
      <point x="828" y="1038" type="line"/>
    </contour>
  </outline>
</glyph>
<glyph name="_latstemNW" format="2">
  <advance width="1148"/>
  <outline>
    <contour>
      <point x="192" y="512" type="line"/>
      <point x="320" y="512" type="line"/>
      <point x="320" y="1038" type="line"/>
      <point x="192" y="1038" type="line"/>
    </contour>
  </outline>
</glyph>
<glyph name="_latstemSE" format="2">
  <advance width="1128"/>
  <outline>
    <contour>
      <point x="808" y="0" type="line"/>
      <point x="936" y="0" type="line"/>
      <point x="936" y="538" type="line"/>
      <point x="808" y="538" type="line"/>
    </contour>
  </outline>
</glyph>
<glyph name="_latstemSW" format="2">
  <advance width="1128"/>
  <outline>
    <contour>
      <point x="192" y="0" type="line"/>
      <point x="320" y="0" type="line"/>
      <point x="320" y="538" type="line"/>
      <point x="192" y="538" type="line"/>
    </contour>
  </outline>
</glyph>
<glyph name="_latstemascW" format="2">
  <advance width="1128"/>
  <outline>
    <contour>
      <point x="192" y="986" type="line"/>
      <point x="320" y="986" type="line"/>
      <point x="320" y="1574" type="line"/>
      <point x="192" y="1574" type="line"/>
    </contour>
  </outline>
</glyph>
<glyph name="_latstemdescE" format="2">
  <advance width="1148"/>
  <outline>
    <contour>
      <point x="728" y="-512" type="line"/>
      <point x="856" y="-512" type="line"/>
      <point x="856" y="62" type="line"/>
      <point x="728" y="62" type="line"/>
    </contour>
  </outline>
</glyph>
<glyph name=".notdef" format="2">
  <advance width="1966"/>
  <outline>
    <contour>
      <point x="328" y="0" type="line"/>
      <point x="1638" y="0" type="line"/>
      <point x="1638" y="1638" type="line"/>
      <point x="328" y="1638" type="line"/>
    </contour>
    <contour>
      <point x="1596" y="42" type="line"/>
      <point x="370" y="42" type="line"/>
      <point x="370" y="1596" type="line"/>
      <point x="1596" y="1596" type="line"/>
    </contour>
  </outline>
</glyph>
<glyph name="ascNW" format="2">
  <advance width="1178"/>
  <outline>
    <contour>
      <point x="922" y="1203" type="line"/>
      <point x="1050" y="1203" type="line"/>
      <point x="1050" y="1306" type="line" smooth="yes"/>
      <point x="1050" y="1469"/>
      <point x="960" y="1562"/>
      <point x="817" y="1562" type="curve" smooth="yes"/>
      <point x="671" y="1562" type="line"/>
      <point x="671" y="1439" type="line"/>
      <point x="796" y="1439" type="line" smooth="yes"/>
      <point x="878" y="1439"/>
      <point x="922" y="1400"/>
      <point x="922" y="1295" type="curve" smooth="yes"/>
    </contour>
    <contour>
      <point x="128" y="712" type="line"/>
      <point x="256" y="712" type="line"/>
      <point x="256" y="1229" type="line"/>
      <point x="128" y="1229" type="line"/>
    </contour>
    <contour>
      <point x="128" y="1203" type="line"/>
      <point x="256" y="1203" type="line"/>
      <point x="256" y="1295" type="line" smooth="yes"/>
      <point x="256" y="1400"/>
      <point x="300" y="1439"/>
      <point x="381" y="1439" type="curve" smooth="yes"/>
      <point x="507" y="1439" type="line"/>
      <point x="507" y="1562" type="line"/>
      <point x="361" y="1562" type="line" smooth="yes"/>
      <point x="218" y="1562"/>
      <point x="128" y="1469"/>
      <point x="128" y="1306" type="curve" smooth="yes"/>
    </contour>
    <contour>
      <point x="717" y="1190" type="line"/>
      <point x="1050" y="1190" type="line"/>
      <point x="1050" y="1293" type="line"/>
      <point x="717" y="1293" type="line"/>
    </contour>
    <contour>
      <point x="435" y="1439" type="line"/>
      <point x="742" y="1439" type="line"/>
      <point x="742" y="1562" type="line"/>
      <point x="435" y="1562" type="line"/>
    </contour>
  </outline>
</glyph>
<glyph name="circleNE" format="2">
  <advance width="920"/>
  <outline>
    <contour>
      <point x="720" y="556" type="line"/>
      <point x="820" y="556" type="line"/>
      <point x="820" y="620" type="line" smooth="yes"/>
      <point x="820" y="748"/>
      <point x="750" y="820"/>
      <point x="638" y="820" type="curve" smooth="yes"/>
      <point x="524" y="820" type="line"/>
      <point x="524" y="724" type="line"/>
      <point x="622" y="724" type="line" smooth="yes"/>
      <point x="686" y="724"/>
      <point x="720" y="694"/>
      <point x="720" y="612" type="curve" smooth="yes"/>
    </contour>
  </outline>
</glyph>
<glyph name="circleNW" format="2">
  <advance width="920"/>
  <outline>
    <contour>
      <point x="100" y="556" type="line"/>
      <point x="200" y="556" type="line"/>
      <point x="200" y="612" type="line" smooth="yes"/>
      <point x="200" y="694"/>
      <point x="234" y="724"/>
      <point x="298" y="724" type="curve" smooth="yes"/>
      <point x="396" y="724" type="line"/>
      <point x="396" y="820" type="line"/>
      <point x="282" y="820" type="line" smooth="yes"/>
      <point x="170" y="820"/>
      <point x="100" y="748"/>
      <point x="100" y="620" type="curve" smooth="yes"/>
    </contour>
  </outline>
</glyph>
<glyph name="circleSE" format="2">
  <advance width="1178"/>
  <outline>
    <contour>
      <point x="671" y="0" type="line"/>
      <point x="817" y="0" type="line" smooth="yes"/>
      <point x="960" y="0"/>
      <point x="1050" y="92"/>
      <point x="1050" y="256" type="curve" smooth="yes"/>
      <point x="1050" y="338" type="line"/>
      <point x="922" y="338" type="line"/>
      <point x="922" y="266" type="line" smooth="yes"/>
      <point x="922" y="161"/>
      <point x="878" y="123"/>
      <point x="796" y="123" type="curve" smooth="yes"/>
      <point x="671" y="123" type="line"/>
    </contour>
  </outline>
</glyph>
<glyph name="circleSW" format="2">
  <advance width="1178"/>
  <outline>
    <contour>
      <point x="361" y="0" type="curve" smooth="yes"/>
      <point x="507" y="0" type="line"/>
      <point x="507" y="123" type="line"/>
      <point x="381" y="123" type="line" smooth="yes"/>
      <point x="300" y="123"/>
      <point x="256" y="161"/>
      <point x="256" y="266" type="curve" smooth="yes"/>
      <point x="256" y="338" type="line"/>
      <point x="128" y="338" type="line"/>
      <point x="128" y="256" type="line" smooth="yes"/>
      <point x="128" y="92"/>
      <point x="218" y="0"/>
    </contour>
  </outline>
</glyph>
<glyph name="circlecomp" format="2">
  <advance width="1178"/>
  <outline>
    <contour>
      <point x="922" y="712" type="line"/>
      <point x="1050" y="712" type="line"/>
      <point x="1050" y="794" type="line" smooth="yes"/>
      <point x="1050" y="957"/>
      <point x="960" y="1050"/>
      <point x="817" y="1050" type="curve" smooth="yes"/>
      <point x="671" y="1050" type="line"/>
      <point x="671" y="927" type="line"/>
      <point x="796" y="927" type="line" smooth="yes"/>
      <point x="878" y="927"/>
      <point x="922" y="888"/>
      <point x="922" y="783" type="curve" smooth="yes"/>
    </contour>
    <contour>
      <point x="361" y="0" type="curve" smooth="yes"/>
      <point x="507" y="0" type="line"/>
      <point x="507" y="123" type="line"/>
      <point x="381" y="123" type="line" smooth="yes"/>
      <point x="300" y="123"/>
      <point x="256" y="161"/>
      <point x="256" y="266" type="curve" smooth="yes"/>
      <point x="256" y="338" type="line"/>
      <point x="128" y="338" type="line"/>
      <point x="128" y="256" type="line" smooth="yes"/>
      <point x="128" y="92"/>
      <point x="218" y="0"/>
    </contour>
    <contour>
      <point x="435" y="0" type="line"/>
      <point x="742" y="0" type="line"/>
      <point x="742" y="123" type="line"/>
      <point x="435" y="123" type="line"/>
    </contour>
    <contour>
      <point x="128" y="333" type="line"/>
      <point x="461" y="333" type="line"/>
      <point x="461" y="435" type="line"/>
      <point x="128" y="435" type="line"/>
    </contour>
    <contour>
      <point x="128" y="333" type="line"/>
      <point x="256" y="333" type="line"/>
      <point x="256" y="717" type="line"/>
      <point x="128" y="717" type="line"/>
    </contour>
    <contour>
      <point x="128" y="614" type="line"/>
      <point x="461" y="614" type="line"/>
      <point x="461" y="717" type="line"/>
      <point x="128" y="717" type="line"/>
    </contour>
    <contour>
      <point x="671" y="0" type="line"/>
      <point x="817" y="0" type="line" smooth="yes"/>
      <point x="960" y="0"/>
      <point x="1050" y="92"/>
      <point x="1050" y="256" type="curve" smooth="yes"/>
      <point x="1050" y="338" type="line"/>
      <point x="922" y="338" type="line"/>
      <point x="922" y="266" type="line" smooth="yes"/>
      <point x="922" y="161"/>
      <point x="878" y="123"/>
      <point x="796" y="123" type="curve" smooth="yes"/>
      <point x="671" y="123" type="line"/>
    </contour>
    <contour>
      <point x="128" y="712" type="line"/>
      <point x="256" y="712" type="line"/>
      <point x="256" y="783" type="line" smooth="yes"/>
      <point x="256" y="888"/>
      <point x="300" y="927"/>
      <point x="381" y="927" type="curve" smooth="yes"/>
      <point x="507" y="927" type="line"/>
      <point x="507" y="1050" type="line"/>
      <point x="361" y="1050" type="line" smooth="yes"/>
      <point x="218" y="1050"/>
      <point x="128" y="957"/>
      <point x="128" y="794" type="curve" smooth="yes"/>
    </contour>
    <contour>
      <point x="717" y="333" type="line"/>
      <point x="1050" y="333" type="line"/>
      <point x="1050" y="435" type="line"/>
      <point x="717" y="435" type="line"/>
    </contour>
    <contour>
      <point x="922" y="333" type="line"/>
      <point x="1050" y="333" type="line"/>
      <point x="1050" y="717" type="line"/>
      <point x="922" y="717" type="line"/>
    </contour>
    <contour>
      <point x="717" y="614" type="line"/>
      <point x="1050" y="614" type="line"/>
      <point x="1050" y="717" type="line"/>
      <point x="717" y="717" type="line"/>
    </contour>
    <contour>
      <point x="435" y="927" type="line"/>
      <point x="742" y="927" type="line"/>
      <point x="742" y="1050" type="line"/>
      <point x="435" y="1050" type="line"/>
    </contour>
  </outline>
</glyph>
<glyph name="circlemidW" format="2">
  <advance width="920"/>
  <outline>
    <contour>
      <point x="200" y="570" type="curve" smooth="yes"/>
      <point x="200" y="612" type="line" smooth="yes"/>
      <point x="200" y="694"/>
      <point x="234" y="724"/>
      <point x="298" y="724" type="curve" smooth="yes"/>
      <point x="396" y="724" type="line"/>
      <point x="396" y="820" type="line"/>
      <point x="282" y="820" type="line" smooth="yes"/>
      <point x="170" y="820"/>
      <point x="100" y="748"/>
      <point x="100" y="620" type="curve" smooth="yes"/>
      <point x="100" y="570" type="line" smooth="yes"/>
      <point x="100" y="442"/>
      <point x="170" y="370"/>
      <point x="282" y="370" type="curve" smooth="yes"/>
      <point x="430" y="370" type="line"/>
      <point x="430" y="450" type="line"/>
      <point x="298" y="450" type="line" smooth="yes"/>
      <point x="244" y="450"/>
      <point x="200" y="488"/>
    </contour>
    <contour>
      <point x="200" y="208" type="curve" smooth="yes"/>
      <point x="200" y="250" type="line" smooth="yes"/>
      <point x="200" y="332"/>
      <point x="234" y="370"/>
      <point x="298" y="370" type="curve" smooth="yes"/>
      <point x="430" y="370" type="line"/>
      <point x="430" y="450" type="line"/>
      <point x="282" y="450" type="line" smooth="yes"/>
      <point x="170" y="450"/>
      <point x="100" y="378"/>
      <point x="100" y="250" type="curve" smooth="yes"/>
      <point x="100" y="200" type="line" smooth="yes"/>
      <point x="100" y="72"/>
      <point x="170" y="0"/>
      <point x="282" y="0" type="curve" smooth="yes"/>
      <point x="396" y="0" type="line"/>
      <point x="396" y="96" type="line"/>
      <point x="298" y="96" type="line" smooth="yes"/>
      <point x="234" y="96"/>
      <point x="200" y="126"/>
    </contour>
  </outline>
</glyph>
<glyph name="descSE" format="2">
  <advance width="920"/>
  <outline>
    <contour>
      <point x="524" y="-410" type="line"/>
      <point x="638" y="-410" type="line" smooth="yes"/>
      <point x="750" y="-410"/>
      <point x="820" y="-338"/>
      <point x="820" y="-210" type="curve" smooth="yes"/>
      <point x="820" y="-130" type="line"/>
      <point x="720" y="-130" type="line"/>
      <point x="720" y="-202" type="line" smooth="yes"/>
      <point x="720" y="-284"/>
      <point x="686" y="-314"/>
      <point x="622" y="-314" type="curve" smooth="yes"/>
      <point x="524" y="-314" type="line"/>
    </contour>
    <contour>
      <point x="720" y="-170" type="line"/>
      <point x="820" y="-170" type="line"/>
      <point x="820" y="264" type="line"/>
      <point x="720" y="264" type="line"/>
    </contour>
  </outline>
</glyph>
<glyph name="descSW" format="2">
  <advance width="920"/>
  <outline>
    <contour>
      <point x="282" y="-410" type="curve" smooth="yes"/>
      <point x="396" y="-410" type="line"/>
      <point x="396" y="-314" type="line"/>
      <point x="298" y="-314" type="line" smooth="yes"/>
      <point x="234" y="-314"/>
      <point x="200" y="-284"/>
      <point x="200" y="-202" type="curve" smooth="yes"/>
      <point x="200" y="-130" type="line"/>
      <point x="100" y="-130" type="line"/>
      <point x="100" y="-210" type="line" smooth="yes"/>
      <point x="100" y="-338"/>
      <point x="170" y="-410"/>
    </contour>
    <contour>
      <point x="100" y="-170" type="line"/>
      <point x="200" y="-170" type="line"/>
      <point x="200" y="264" type="line"/>
      <point x="100" y="264" type="line"/>
    </contour>
  </outline>
</glyph>
<glyph name="desccomp" format="2">
  <advance width="1178"/>
  <outline>
    <contour>
      <point x="361" y="-525" type="curve" smooth="yes"/>
      <point x="507" y="-525" type="line"/>
      <point x="507" y="-402" type="line"/>
      <point x="381" y="-402" type="line" smooth="yes"/>
      <point x="300" y="-402"/>
      <point x="256" y="-364"/>
      <point x="256" y="-259" type="curve" smooth="yes"/>
      <point x="256" y="-166" type="line"/>
      <point x="128" y="-166" type="line"/>
      <point x="128" y="-269" type="line" smooth="yes"/>
      <point x="128" y="-433"/>
      <point x="218" y="-525"/>
    </contour>
    <contour>
      <point x="435" y="-525" type="line"/>
      <point x="742" y="-525" type="line"/>
      <point x="742" y="-402" type="line"/>
      <point x="435" y="-402" type="line"/>
    </contour>
    <contour>
      <point x="128" y="-218" type="line"/>
      <point x="256" y="-218" type="line"/>
      <point x="256" y="338" type="line"/>
      <point x="128" y="338" type="line"/>
    </contour>
    <contour>
      <point x="128" y="-243" type="line"/>
      <point x="461" y="-243" type="line"/>
      <point x="461" y="-141" type="line"/>
      <point x="128" y="-141" type="line"/>
    </contour>
    <contour>
      <point x="671" y="-525" type="line"/>
      <point x="817" y="-525" type="line" smooth="yes"/>
      <point x="960" y="-525"/>
      <point x="1050" y="-433"/>
      <point x="1050" y="-269" type="curve" smooth="yes"/>
      <point x="1050" y="-166" type="line"/>
      <point x="922" y="-166" type="line"/>
      <point x="922" y="-259" type="line" smooth="yes"/>
      <point x="922" y="-364"/>
      <point x="878" y="-402"/>
      <point x="796" y="-402" type="curve" smooth="yes"/>
      <point x="671" y="-402" type="line"/>
    </contour>
    <contour>
      <point x="922" y="-218" type="line"/>
      <point x="1050" y="-218" type="line"/>
      <point x="1050" y="338" type="line"/>
      <point x="922" y="338" type="line"/>
    </contour>
    <contour>
      <point x="717" y="-243" type="line"/>
      <point x="1050" y="-243" type="line"/>
      <point x="1050" y="-141" type="line"/>
      <point x="717" y="-141" type="line"/>
    </contour>
  </outline>
</glyph>
<glyph name="descserifSE" format="2">
  <advance width="1178"/>
  <outline>
    <contour>
      <point x="435" y="-525" type="line"/>
      <point x="742" y="-525" type="line"/>
      <point x="742" y="-402" type="line"/>
      <point x="435" y="-402" type="line"/>
    </contour>
    <contour>
      <point x="671" y="-525" type="line"/>
      <point x="817" y="-525" type="line" smooth="yes"/>
      <point x="960" y="-525"/>
      <point x="1050" y="-433"/>
      <point x="1050" y="-269" type="curve" smooth="yes"/>
      <point x="1050" y="-166" type="line"/>
      <point x="922" y="-166" type="line"/>
      <point x="922" y="-259" type="line" smooth="yes"/>
      <point x="922" y="-364"/>
      <point x="878" y="-402"/>
      <point x="796" y="-402" type="curve" smooth="yes"/>
      <point x="671" y="-402" type="line"/>
    </contour>
    <contour>
      <point x="717" y="-243" type="line"/>
      <point x="1050" y="-243" type="line"/>
      <point x="1050" y="-141" type="line"/>
      <point x="717" y="-141" type="line"/>
    </contour>
  </outline>
</glyph>
<glyph name="descserifSW" format="2">
  <advance width="1178"/>
  <outline>
    <contour>
      <point x="361" y="-525" type="curve" smooth="yes"/>
      <point x="507" y="-525" type="line"/>
      <point x="507" y="-402" type="line"/>
      <point x="381" y="-402" type="line" smooth="yes"/>
      <point x="300" y="-402"/>
      <point x="256" y="-364"/>
      <point x="256" y="-259" type="curve" smooth="yes"/>
      <point x="256" y="-166" type="line"/>
      <point x="128" y="-166" type="line"/>
      <point x="128" y="-269" type="line" smooth="yes"/>
      <point x="128" y="-433"/>
      <point x="218" y="-525"/>
    </contour>
    <contour>
      <point x="435" y="-525" type="line"/>
      <point x="742" y="-525" type="line"/>
      <point x="742" y="-402" type="line"/>
      <point x="435" y="-402" type="line"/>
    </contour>
    <contour>
      <point x="128" y="-243" type="line"/>
      <point x="461" y="-243" type="line"/>
      <point x="461" y="-141" type="line"/>
      <point x="128" y="-141" type="line"/>
    </contour>
  </outline>
</glyph>
<glyph name="diagNW" format="2">
  <advance width="1178"/>
  <outline>
    <contour>
      <point x="466" y="1050" type="line"/>
      <point x="422" y="1050" type="line"/>
      <point x="164" y="788" type="line"/>
      <point x="164" y="620" type="line"/>
      <point x="466" y="927" type="line"/>
    </contour>
  </outline>
</glyph>
<glyph name="diagNWSE" format="2">
  <advance width="1178"/>
  <outline>
    <contour>
      <point x="1050" y="378" type="line"/>
      <point x="256" y="755" type="line"/>
      <point x="128" y="755" type="line"/>
      <point x="128" y="678" type="line"/>
      <point x="922" y="301" type="line"/>
      <point x="922" y="301"/>
      <point x="1050" y="301"/>
      <point x="1050" y="301" type="curve"/>
    </contour>
  </outline>
</glyph>
<glyph name="diagSE" format="2">
  <advance width="920"/>
  <outline>
    <contour>
      <point x="356" y="96" type="line"/>
      <point x="356" y="0" type="line"/>
      <point x="402" y="0" type="line"/>
      <point x="770" y="369" type="line"/>
      <point x="770" y="510" type="line"/>
    </contour>
  </outline>
</glyph>
<glyph name="diagSWNE" format="2">
  <advance width="920"/>
  <outline>
    <contour>
      <point x="100" y="295" type="line"/>
      <point x="100" y="235" type="line"/>
      <point x="100" y="235"/>
      <point x="200" y="235"/>
      <point x="200" y="235" type="curve"/>
      <point x="820" y="530" type="line"/>
      <point x="820" y="590" type="line"/>
      <point x="720" y="590" type="line"/>
    </contour>
  </outline>
</glyph>
<glyph name="diagcomp" format="2">
  <advance width="1178"/>
  <outline>
    <contour>
      <point x="128" y="378" type="line"/>
      <point x="128" y="301" type="line"/>
      <point x="128" y="301"/>
      <point x="256" y="301"/>
      <point x="256" y="301" type="curve"/>
      <point x="1050" y="678" type="line"/>
      <point x="1050" y="755" type="line"/>
      <point x="922" y="755" type="line"/>
    </contour>
    <contour>
      <point x="1050" y="378" type="line"/>
      <point x="256" y="755" type="line"/>
      <point x="128" y="755" type="line"/>
      <point x="128" y="678" type="line"/>
      <point x="922" y="301" type="line"/>
      <point x="922" y="301"/>
      <point x="1050" y="301"/>
      <point x="1050" y="301" type="curve"/>
    </contour>
    <contour>
      <point x="361" y="0" type="curve" smooth="yes"/>
      <point x="507" y="0" type="line"/>
      <point x="507" y="123" type="line"/>
      <point x="381" y="123" type="line" smooth="yes"/>
      <point x="300" y="123"/>
      <point x="256" y="161"/>
      <point x="256" y="266" type="curve" smooth="yes"/>
      <point x="256" y="338" type="line"/>
      <point x="128" y="338" type="line"/>
      <point x="128" y="256" type="line" smooth="yes"/>
      <point x="128" y="92"/>
      <point x="218" y="0"/>
    </contour>
    <contour>
      <point x="671" y="0" type="line"/>
      <point x="817" y="0" type="line" smooth="yes"/>
      <point x="960" y="0"/>
      <point x="1050" y="92"/>
      <point x="1050" y="256" type="curve" smooth="yes"/>
      <point x="1050" y="338" type="line"/>
      <point x="922" y="338" type="line"/>
      <point x="922" y="266" type="line" smooth="yes"/>
      <point x="922" y="161"/>
      <point x="878" y="123"/>
      <point x="796" y="123" type="curve" smooth="yes"/>
      <point x="671" y="123" type="line"/>
    </contour>
    <contour>
      <point x="128" y="712" type="line"/>
      <point x="256" y="712" type="line"/>
      <point x="256" y="783" type="line" smooth="yes"/>
      <point x="256" y="888"/>
      <point x="300" y="927"/>
      <point x="381" y="927" type="curve" smooth="yes"/>
      <point x="507" y="927" type="line"/>
      <point x="507" y="1050" type="line"/>
      <point x="361" y="1050" type="line" smooth="yes"/>
      <point x="218" y="1050"/>
      <point x="128" y="957"/>
      <point x="128" y="794" type="curve" smooth="yes"/>
    </contour>
    <contour>
      <point x="922" y="712" type="line"/>
      <point x="1050" y="712" type="line"/>
      <point x="1050" y="794" type="line" smooth="yes"/>
      <point x="1050" y="957"/>
      <point x="960" y="1050"/>
      <point x="817" y="1050" type="curve" smooth="yes"/>
      <point x="671" y="1050" type="line"/>
      <point x="671" y="927" type="line"/>
      <point x="796" y="927" type="line" smooth="yes"/>
      <point x="878" y="927"/>
      <point x="922" y="888"/>
      <point x="922" y="783" type="curve" smooth="yes"/>
    </contour>
    <contour>
      <point x="456" y="123" type="line"/>
      <point x="456" y="0" type="line"/>
      <point x="515" y="0" type="line"/>
      <point x="986" y="472" type="line"/>
      <point x="986" y="653" type="line"/>
    </contour>
    <contour>
      <point x="466" y="1050" type="line"/>
      <point x="422" y="1050" type="line"/>
      <point x="164" y="788" type="line"/>
      <point x="164" y="620" type="line"/>
      <point x="466" y="927" type="line"/>
    </contour>
  </outline>
</glyph>
<glyph name="headcir" format="2">
  <advance width="1180"/>
  <outline>
    <contour>
      <point x="770" y="-12" type="curve" smooth="yes"/>
      <point x="876" y="-12"/>
      <point x="962" y="74"/>
      <point x="962" y="180" type="curve" smooth="yes"/>
      <point x="962" y="286"/>
      <point x="876" y="372"/>
      <point x="770" y="372" type="curve" smooth="yes"/>
      <point x="664" y="372"/>
      <point x="578" y="286"/>
      <point x="578" y="180" type="curve" smooth="yes"/>
      <point x="578" y="74"/>
      <point x="664" y="-12"/>
    </contour>
    <contour>
      <point x="770" y="90" type="curve" smooth="yes"/>
      <point x="720" y="90"/>
      <point x="680" y="130"/>
      <point x="680" y="180" type="curve" smooth="yes"/>
      <point x="680" y="230"/>
      <point x="720" y="270"/>
      <point x="770" y="270" type="curve" smooth="yes"/>
      <point x="820" y="270"/>
      <point x="860" y="230"/>
      <point x="860" y="180" type="curve" smooth="yes"/>
      <point x="860" y="130"/>
      <point x="820" y="90"/>
    </contour>
  </outline>
</glyph>
<glyph name="hookascE" format="2">
  <advance width="920"/>
  <outline>
    <contour>
      <point x="720" y="772" type="line"/>
      <point x="820" y="772" type="line"/>
      <point x="820" y="1150" type="line"/>
      <point x="720" y="1150" type="line"/>
    </contour>
    <contour>
      <point x="604" y="1030" type="line"/>
      <point x="724" y="1114" type="line"/>
      <point x="820" y="1114" type="line"/>
      <point x="820" y="1230" type="line"/>
      <point x="724" y="1230" type="line"/>
      <point x="604" y="1146" type="line"/>
    </contour>
  </outline>
</glyph>
<glyph name="hookascW" format="2">
  <advance width="920"/>
  <outline>
    <contour>
      <point x="100" y="772" type="line"/>
      <point x="200" y="772" type="line"/>
      <point x="200" y="1150" type="line"/>
      <point x="100" y="1150" type="line"/>
    </contour>
    <contour>
      <point x="316" y="1030" type="line"/>
      <point x="316" y="1146" type="line"/>
      <point x="196" y="1230" type="line"/>
      <point x="100" y="1230" type="line"/>
      <point x="100" y="1114" type="line"/>
      <point x="196" y="1114" type="line"/>
    </contour>
  </outline>
</glyph>
<glyph name="latcir" format="2">
  <advance width="1101"/>
  <outline>
    <contour>
      <point x="586" y="1050" type="curve" smooth="yes"/>
      <point x="515" y="1050" type="line" smooth="yes"/>
      <point x="294" y="1050"/>
      <point x="128" y="881"/>
      <point x="128" y="589" type="curve" smooth="yes"/>
      <point x="128" y="461" type="line" smooth="yes"/>
      <point x="128" y="169"/>
      <point x="294" y="0"/>
      <point x="515" y="0" type="curve" smooth="yes"/>
      <point x="586" y="0" type="line" smooth="yes"/>
      <point x="806" y="0"/>
      <point x="973" y="169"/>
      <point x="973" y="461" type="curve" smooth="yes"/>
      <point x="973" y="589" type="line" smooth="yes"/>
      <point x="973" y="881"/>
      <point x="806" y="1050"/>
    </contour>
    <contour>
      <point x="845" y="579" type="curve" smooth="yes"/>
      <point x="845" y="471" type="line" smooth="yes"/>
      <point x="845" y="238"/>
      <point x="737" y="123"/>
      <point x="579" y="123" type="curve" smooth="yes"/>
      <point x="522" y="123" type="line" smooth="yes"/>
      <point x="364" y="123"/>
      <point x="256" y="238"/>
      <point x="256" y="471" type="curve" smooth="yes"/>
      <point x="256" y="579" type="line" smooth="yes"/>
      <point x="256" y="812"/>
      <point x="364" y="927"/>
      <point x="522" y="927" type="curve" smooth="yes"/>
      <point x="579" y="927" type="line" smooth="yes"/>
      <point x="737" y="927"/>
      <point x="845" y="812"/>
    </contour>
  </outline>
</glyph>
<glyph name="latn" format="2">
  <advance width="868"/>
  <outline>
    <contour>
      <point x="124" y="0" type="line"/>
      <point x="324" y="0" type="line"/>
      <point x="324" y="96" type="line"/>
      <point x="124" y="96" type="line"/>
    </contour>
    <contour>
      <point x="124" y="0" type="line"/>
      <point x="224" y="0" type="line"/>
      <point x="224" y="264" type="line"/>
      <point x="124" y="264" type="line"/>
    </contour>
    <contour>
      <point x="124" y="260" type="line"/>
      <point x="224" y="260" type="line"/>
      <point x="224" y="440" type="line"/>
      <point x="124" y="440" type="line"/>
    </contour>
    <contour>
      <point x="544" y="0" type="line"/>
      <point x="744" y="0" type="line"/>
      <point x="744" y="96" type="line"/>
      <point x="544" y="96" type="line"/>
    </contour>
    <contour>
      <point x="644" y="0" type="line"/>
      <point x="744" y="0" type="line"/>
      <point x="744" y="264" type="line"/>
      <point x="644" y="264" type="line"/>
    </contour>
    <contour>
      <point x="644" y="260" type="line"/>
      <point x="744" y="260" type="line"/>
      <point x="744" y="440" type="line"/>
      <point x="644" y="440" type="line"/>
    </contour>
    <contour>
      <point x="24" y="0" type="line"/>
      <point x="224" y="0" type="line"/>
      <point x="224" y="96" type="line"/>
      <point x="24" y="96" type="line"/>
    </contour>
    <contour>
      <point x="644" y="0" type="line"/>
      <point x="844" y="0" type="line"/>
      <point x="844" y="96" type="line"/>
      <point x="644" y="96" type="line"/>
    </contour>
    <contour>
      <point x="124" y="436" type="line"/>
      <point x="224" y="436" type="line"/>
      <point x="224" y="492" type="line" smooth="yes"/>
      <point x="224" y="644"/>
      <point x="268" y="724"/>
      <point x="382" y="724" type="curve" smooth="yes"/>
      <point x="460" y="724" type="line"/>
      <point x="460" y="820" type="line"/>
      <point x="366" y="820" type="line" smooth="yes"/>
      <point x="214" y="820"/>
      <point x="124" y="698"/>
      <point x="124" y="510" type="curve" smooth="yes"/>
    </contour>
    <contour>
      <point x="644" y="436" type="line"/>
      <point x="744" y="436" type="line"/>
      <point x="744" y="510" type="line" smooth="yes"/>
      <point x="744" y="698"/>
      <point x="654" y="820"/>
      <point x="502" y="820" type="curve" smooth="yes"/>
      <point x="408" y="820" type="line"/>
      <point x="408" y="724" type="line"/>
      <point x="486" y="724" type="line" smooth="yes"/>
      <point x="600" y="724"/>
      <point x="644" y="644"/>
      <point x="644" y="492" type="curve" smooth="yes"/>
    </contour>
    <contour>
      <point x="124" y="1230" type="line"/>
      <point x="124" y="466" type="line"/>
      <point x="224" y="466" type="line"/>
      <point x="224" y="1230" type="line"/>
    </contour>
    <contour>
      <point x="24" y="1134" type="line"/>
      <point x="224" y="1134" type="line"/>
      <point x="224" y="1230" type="line"/>
      <point x="24" y="1230" type="line"/>
    </contour>
    <contour>
      <point x="364" y="820" type="line"/>
      <point x="330" y="820" type="line"/>
      <point x="128" y="616" type="line"/>
      <point x="128" y="484" type="line"/>
      <point x="364" y="724" type="line"/>
    </contour>
  </outline>
</glyph>
<glyph name="loopflat" format="2">
  <advance width="920"/>
  <outline>
    <contour>
      <point x="820" y="302" type="line"/>
      <point x="620" y="302" type="line" smooth="yes"/>
      <point x="475" y="302"/>
      <point x="302" y="217"/>
      <point x="194" y="82" type="curve"/>
      <point x="278" y="82" type="line"/>
      <point x="349" y="141"/>
      <point x="455" y="206"/>
      <point x="600" y="206" type="curve" smooth="yes"/>
      <point x="600" y="206"/>
      <point x="763" y="206"/>
      <point x="763" y="206" type="curve" smooth="yes"/>
      <point x="763" y="206"/>
      <point x="820" y="256"/>
      <point x="820" y="256" type="curve"/>
    </contour>
  </outline>
</glyph>
<glyph name="midE" format="2">
  <advance width="920"/>
  <outline>
    <contour>
      <point x="720" y="260" type="line"/>
      <point x="820" y="260" type="line"/>
      <point x="820" y="560" type="line"/>
      <point x="720" y="560" type="line"/>
    </contour>
  </outline>
</glyph>
<glyph name="midEN" format="2">
  <advance width="920"/>
  <outline>
    <contour>
      <point x="720" y="410" type="line"/>
      <point x="820" y="410" type="line"/>
      <point x="820" y="560" type="line"/>
      <point x="720" y="560" type="line"/>
    </contour>
  </outline>
</glyph>
<glyph name="midN" format="2">
  <advance width="920"/>
  <outline>
    <contour>
      <point x="340" y="724" type="line"/>
      <point x="580" y="724" type="line"/>
      <point x="580" y="820" type="line"/>
      <point x="340" y="820" type="line"/>
    </contour>
  </outline>
</glyph>
<glyph name="midS" format="2">
  <advance width="1178"/>
  <outline>
    <contour>
      <point x="435" y="0" type="line"/>
      <point x="742" y="0" type="line"/>
      <point x="742" y="123" type="line"/>
      <point x="435" y="123" type="line"/>
    </contour>
  </outline>
</glyph>
<glyph name="midW" format="2">
  <advance width="1178"/>
  <outline>
    <contour>
      <point x="128" y="333" type="line"/>
      <point x="256" y="333" type="line"/>
      <point x="256" y="717" type="line"/>
      <point x="128" y="717" type="line"/>
    </contour>
  </outline>
</glyph>
<glyph name="midWN" format="2">
  <advance width="1180"/>
  <outline>
    <contour>
      <point x="128" y="525" type="line"/>
      <point x="256" y="525" type="line"/>
      <point x="256" y="717" type="line"/>
      <point x="128" y="717" type="line"/>
    </contour>
  </outline>
</glyph>
<glyph name="midline" format="2">
  <advance width="920"/>
  <outline>
    <contour>
      <point x="100" y="370" type="line"/>
      <point x="820" y="370" type="line"/>
      <point x="820" y="450" type="line"/>
      <point x="100" y="450" type="line"/>
    </contour>
  </outline>
</glyph>
<glyph name="serifE" format="2">
  <advance width="1180"/>
  <outline>
    <contour>
      <point x="924" y="0" type="line"/>
      <point x="1144" y="0" type="line"/>
      <point x="1144" y="124" type="line"/>
      <point x="924" y="124" type="line"/>
    </contour>
  </outline>
</glyph>
<glyph name="serifEN" format="2">
  <advance width="1180"/>
  <outline>
    <contour>
      <point x="717" y="614" type="line"/>
      <point x="1052" y="614" type="line"/>
      <point x="1052" y="716" type="line"/>
      <point x="717" y="716" type="line"/>
    </contour>
  </outline>
</glyph>
<glyph name="serifES" format="2">
  <advance width="1178"/>
  <outline>
    <contour>
      <point x="717" y="333" type="line"/>
      <point x="1050" y="333" type="line"/>
      <point x="1050" y="435" type="line"/>
      <point x="717" y="435" type="line"/>
    </contour>
  </outline>
</glyph>
<glyph name="serifW" format="2">
  <advance width="1178"/>
  <outline>
    <contour>
      <point x="33" y="0" type="line"/>
      <point x="256" y="0" type="line"/>
      <point x="256" y="123" type="line"/>
      <point x="33" y="123" type="line"/>
    </contour>
  </outline>
</glyph>
<glyph name="serifWN" format="2">
  <advance width="920"/>
  <outline>
    <contour>
      <point x="100" y="480" type="line"/>
      <point x="360" y="480" type="line"/>
      <point x="360" y="560" type="line"/>
      <point x="100" y="560" type="line"/>
    </contour>
  </outline>
</glyph>
<glyph name="serifWNshort" format="2">
  <advance width="1180"/>
  <outline>
    <contour>
      <point x="128" y="614" type="line"/>
      <point x="423" y="614" type="line"/>
      <point x="423" y="716" type="line"/>
      <point x="128" y="716" type="line"/>
    </contour>
  </outline>
</glyph>
<glyph name="serifWS" format="2">
  <advance width="920"/>
  <outline>
    <contour>
      <point x="100" y="260" type="line"/>
      <point x="360" y="260" type="line"/>
      <point x="360" y="340" type="line"/>
      <point x="100" y="340" type="line"/>
    </contour>
  </outline>
</glyph>
<glyph name="sqEN" format="2">
  <advance width="920"/>
  <outline>
    <contour>
      <point x="720" y="556" type="line"/>
      <point x="820" y="556" type="line"/>
      <point x="820" y="820" type="line"/>
      <point x="720" y="820" type="line"/>
    </contour>
  </outline>
</glyph>
<glyph name="sqES" format="2">
  <advance width="920"/>
  <outline>
    <contour>
      <point x="720" y="0" type="line"/>
      <point x="820" y="0" type="line"/>
      <point x="820" y="264" type="line"/>
      <point x="720" y="264" type="line"/>
    </contour>
  </outline>
</glyph>
<glyph name="sqNE" format="2">
  <advance width="1178"/>
  <outline>
    <contour>
      <point x="691" y="927" type="line"/>
      <point x="1050" y="927" type="line"/>
      <point x="1050" y="1050" type="line"/>
      <point x="691" y="1050" type="line"/>
    </contour>
  </outline>
</glyph>
<glyph name="sqNW" format="2">
  <advance width="920"/>
  <outline>
    <contour>
      <point x="100" y="724" type="line"/>
      <point x="380" y="724" type="line"/>
      <point x="380" y="820" type="line"/>
      <point x="100" y="820" type="line"/>
    </contour>
  </outline>
</glyph>
<glyph name="sqSE" format="2">
  <advance width="1178"/>
  <outline>
    <contour>
      <point x="691" y="0" type="line"/>
      <point x="1050" y="0" type="line"/>
      <point x="1050" y="123" type="line"/>
      <point x="691" y="123" type="line"/>
    </contour>
  </outline>
</glyph>
<glyph name="sqSW" format="2">
  <advance width="920"/>
  <outline>
    <contour>
      <point x="100" y="0" type="line"/>
      <point x="380" y="0" type="line"/>
      <point x="380" y="96" type="line"/>
      <point x="100" y="96" type="line"/>
    </contour>
  </outline>
</glyph>
<glyph name="sqWN" format="2">
  <advance width="920"/>
  <outline>
    <contour>
      <point x="100" y="556" type="line"/>
      <point x="200" y="556" type="line"/>
      <point x="200" y="820" type="line"/>
      <point x="100" y="820" type="line"/>
    </contour>
  </outline>
</glyph>
<glyph name="sqWS" format="2">
  <advance width="920"/>
  <outline>
    <contour>
      <point x="100" y="0" type="line"/>
      <point x="200" y="0" type="line"/>
      <point x="200" y="264" type="line"/>
      <point x="100" y="264" type="line"/>
    </contour>
  </outline>
</glyph>
<glyph name="squarecomp" format="2">
  <advance width="1178"/>
  <outline>
    <contour>
      <point x="128" y="474" type="line"/>
      <point x="1050" y="474" type="line"/>
      <point x="1050" y="576" type="line"/>
      <point x="128" y="576" type="line"/>
    </contour>
    <contour>
      <point x="128" y="0" type="line"/>
      <point x="486" y="0" type="line"/>
      <point x="486" y="123" type="line"/>
      <point x="128" y="123" type="line"/>
    </contour>
    <contour>
      <point x="128" y="0" type="line"/>
      <point x="256" y="0" type="line"/>
      <point x="256" y="338" type="line"/>
      <point x="128" y="338" type="line"/>
    </contour>
    <contour>
      <point x="435" y="0" type="line"/>
      <point x="742" y="0" type="line"/>
      <point x="742" y="123" type="line"/>
      <point x="435" y="123" type="line"/>
    </contour>
    <contour>
      <point x="128" y="333" type="line"/>
      <point x="256" y="333" type="line"/>
      <point x="256" y="717" type="line"/>
      <point x="128" y="717" type="line"/>
    </contour>
    <contour>
      <point x="691" y="0" type="line"/>
      <point x="1050" y="0" type="line"/>
      <point x="1050" y="123" type="line"/>
      <point x="691" y="123" type="line"/>
    </contour>
    <contour>
      <point x="128" y="712" type="line"/>
      <point x="256" y="712" type="line"/>
      <point x="256" y="1050" type="line"/>
      <point x="128" y="1050" type="line"/>
    </contour>
    <contour>
      <point x="922" y="0" type="line"/>
      <point x="1050" y="0" type="line"/>
      <point x="1050" y="338" type="line"/>
      <point x="922" y="338" type="line"/>
    </contour>
    <contour>
      <point x="128" y="927" type="line"/>
      <point x="486" y="927" type="line"/>
      <point x="486" y="1050" type="line"/>
      <point x="128" y="1050" type="line"/>
    </contour>
    <contour>
      <point x="128" y="988" type="line"/>
      <point x="256" y="988" type="line"/>
      <point x="256" y="1472" type="line"/>
      <point x="128" y="1472" type="line"/>
    </contour>
    <contour>
      <point x="922" y="333" type="line"/>
      <point x="1050" y="333" type="line"/>
      <point x="1050" y="717" type="line"/>
      <point x="922" y="717" type="line"/>
    </contour>
    <contour>
      <point x="435" y="927" type="line"/>
      <point x="742" y="927" type="line"/>
      <point x="742" y="1050" type="line"/>
      <point x="435" y="1050" type="line"/>
    </contour>
    <contour>
      <point x="404" y="1318" type="line"/>
      <point x="404" y="1467" type="line"/>
      <point x="251" y="1574" type="line"/>
      <point x="128" y="1574" type="line"/>
      <point x="128" y="1426" type="line"/>
      <point x="251" y="1426" type="line"/>
    </contour>
    <contour>
      <point x="922" y="712" type="line"/>
      <point x="1050" y="712" type="line"/>
      <point x="1050" y="1050" type="line"/>
      <point x="922" y="1050" type="line"/>
    </contour>
    <contour>
      <point x="691" y="927" type="line"/>
      <point x="1050" y="927" type="line"/>
      <point x="1050" y="1050" type="line"/>
      <point x="691" y="1050" type="line"/>
    </contour>
    <contour>
      <point x="922" y="988" type="line"/>
      <point x="1050" y="988" type="line"/>
      <point x="1050" y="1472" type="line"/>
      <point x="922" y="1472" type="line"/>
    </contour>
    <contour>
      <point x="773" y="1318" type="line"/>
      <point x="927" y="1426" type="line"/>
      <point x="1050" y="1426" type="line"/>
      <point x="1050" y="1574" type="line"/>
      <point x="927" y="1574" type="line"/>
      <point x="773" y="1467" type="line"/>
    </contour>
    <contour>
      <point x="33" y="0" type="line"/>
      <point x="256" y="0" type="line"/>
      <point x="256" y="123" type="line"/>
      <point x="33" y="123" type="line"/>
    </contour>
    <contour>
      <point x="922" y="0" type="line"/>
      <point x="1144" y="0" type="line"/>
      <point x="1144" y="123" type="line"/>
      <point x="922" y="123" type="line"/>
    </contour>
  </outline>
</glyph>
